<?xml version="1.0" encoding="UTF-8" standalone="no"?><svg xmlns="http://www.w3.org/2000/svg" xmlns:xlink="http://www.w3.org/1999/xlink" contentStyleType="text/css" height="747px" preserveAspectRatio="none" style="width:1208px;height:747px;background:#FFFFFF;" version="1.1" viewBox="0 0 1208 747" width="1208px" zoomAndPan="magnify"><defs/><g><g id="elem_be"><ellipse cx="470.4775" cy="320.2955" fill="#F1F1F1" rx="79.4775" ry="18.2955" style="stroke:#181818;stroke-width:0.5;"/><text fill="#000000" font-family="sans-serif" font-size="14" lengthAdjust="spacing" textLength="113" x="412.756" y="324.3709">Buscar elementos</text></g><g id="elem_cd"><ellipse cx="332.63" cy="182.526" fill="#F1F1F1" rx="95.63" ry="21.526" style="stroke:#181818;stroke-width:0.5;"/><text fill="#000000" font-family="sans-serif" font-size="14" lengthAdjust="spacing" textLength="151" x="257.13" y="186.2545">Consultar disponibilidad</text></g><g id="elem_cr"><ellipse cx="603.3351" cy="182.367" fill="#F1F1F1" rx="82.3351" ry="18.867" style="stroke:#181818;stroke-width:0.5;"/><text fill="#000000" font-family="sans-serif" font-size="14" lengthAdjust="spacing" textLength="120" x="543.3351" y="186.0955">Consultar reservas</text></g><!--MD5=[8e9b2d9d80e066cced8e5d90e9bdea61]
entity c--><g id="elem_c"><ellipse cx="855.5" cy="152" fill="#F1F1F1" rx="8" ry="8" style="stroke:#181818;stroke-width:0.5;"/><path d="M855.5,160 L855.5,187 M842.5,168 L868.5,168 M855.5,187 L842.5,202 M855.5,187 L868.5,202 " fill="none" style="stroke:#181818;stroke-width:0.5;"/><text fill="#000000" font-family="sans-serif" font-size="14" lengthAdjust="spacing" textLength="63" x="824" y="218.0332">Comercial</text></g><g id="elem_crc"><ellipse cx="771.5137" cy="320.4027" fill="#F1F1F1" rx="115.0137" ry="25.4027" style="stroke:#181818;stroke-width:0.5;"/><text fill="#000000" font-family="sans-serif" font-size="14" lengthAdjust="spacing" textLength="194" x="674.5137" y="324.1313">Consultar reservas (comercial)</text></g><g id="elem_roc"><ellipse cx="640.3802" cy="579.4109" fill="#F1F1F1" rx="160.3802" ry="43.9109" style="stroke:#181818;stroke-width:0.5;"/><text fill="#000000" font-family="sans-serif" font-size="14" lengthAdjust="spacing" textLength="173" x="540.7667" y="561.8473">Realizar ofertas (comercial)</text><line style="stroke:#181818;stroke-width:1.0;" x1="489.9803" x2="790.78" y1="564.9235" y2="564.9235"/><text fill="#000000" font-family="sans-serif" font-size="14" lengthAdjust="spacing" textLength="112" x="569.2667" y="583.4567">*extension points*</text><text fill="#000000" font-family="sans-serif" font-size="14" lengthAdjust="spacing" textLength="222" x="516.2667" y="601.066">Buscar temporalmente una reserva</text></g><g id="elem_Recalcular precios"><ellipse cx="515.597" cy="712.6194" fill="#F1F1F1" rx="81.097" ry="18.6194" style="stroke:#181818;stroke-width:0.5;"/><text fill="#000000" font-family="sans-serif" font-size="14" lengthAdjust="spacing" textLength="117" x="456.5843" y="716.4982">Recalcular precios</text></g><g id="elem_Gestionar nuevas reservas"><ellipse cx="1097.5397" cy="320.3079" fill="#F1F1F1" rx="104.5397" ry="23.3079" style="stroke:#181818;stroke-width:0.5;"/><text fill="#000000" font-family="sans-serif" font-size="14" lengthAdjust="spacing" textLength="171" x="1012.0397" y="324.0365">Gestionar nuevas reservas</text></g><g id="elem_Bloquear temporalmente una reserva"><ellipse cx="765.6118" cy="712.7224" fill="#F1F1F1" rx="134.1118" ry="29.2224" style="stroke:#181818;stroke-width:0.5;"/><text fill="#000000" font-family="sans-serif" font-size="14" lengthAdjust="spacing" textLength="235" x="648.1118" y="716.4509">Bloquear temporalmente una reserva</text></g><!--MD5=[79a439086b036a57b90a01d7b2f8bbd1]
entity admin--><g id="elem_admin"><ellipse cx="114.5" cy="290" fill="#F1F1F1" rx="8" ry="8" style="stroke:#181818;stroke-width:0.5;"/><path d="M114.5,298 L114.5,325 M101.5,306 L127.5,306 M114.5,325 L101.5,340 M114.5,325 L127.5,340 " fill="none" style="stroke:#181818;stroke-width:0.5;"/><text fill="#000000" font-family="sans-serif" font-size="14" lengthAdjust="spacing" textLength="87" x="71" y="356.0332">Administrador</text></g><g id="elem_cra"><ellipse cx="586.5728" cy="447.3146" fill="#F1F1F1" rx="127.0728" ry="27.8146" style="stroke:#181818;stroke-width:0.5;"/><text fill="#000000" font-family="sans-serif" font-size="14" lengthAdjust="spacing" textLength="220" x="476.5728" y="451.0431">Consultar reservas (administrador)</text></g><g id="elem_Gestionar nuevas peticiones"><ellipse cx="114.6128" cy="447.6226" fill="#F1F1F1" rx="108.6128" ry="24.1226" style="stroke:#181818;stroke-width:0.5;"/><text fill="#000000" font-family="sans-serif" font-size="14" lengthAdjust="spacing" textLength="180" x="24.6128" y="451.3511">Gestionar nuevas peticiones</text></g><g id="elem_roa"><ellipse cx="341.6111" cy="447.7222" fill="#F1F1F1" rx="74.1111" ry="17.2222" style="stroke:#181818;stroke-width:0.5;"/><text fill="#000000" font-family="sans-serif" font-size="14" lengthAdjust="spacing" textLength="99" x="289.1111" y="452.2388">Realizar ofertas</text></g><!--MD5=[c251b62818238b6f79269adc5bf7d1e2]
entity cli--><g id="elem_cli"><ellipse cx="332.5" cy="14" fill="#F1F1F1" rx="8" ry="8" style="stroke:#181818;stroke-width:0.5;"/><path d="M332.5,22 L332.5,49 M319.5,30 L345.5,30 M332.5,49 L319.5,64 M332.5,49 L345.5,64 " fill="none" style="stroke:#181818;stroke-width:0.5;"/><text fill="#000000" font-family="sans-serif" font-size="14" lengthAdjust="spacing" textLength="44" x="310.5" y="80.0332">Cliente</text></g><g id="elem_Mostrar calendario"><ellipse cx="274.5075" cy="320.7015" fill="#F1F1F1" rx="81.5075" ry="18.7015" style="stroke:#181818;stroke-width:0.5;"/><text fill="#000000" font-family="sans-serif" font-size="14" lengthAdjust="spacing" textLength="118" x="215.1675" y="324.5304">Mostrar calendario</text></g><g id="elem_Visualizar oferta"><ellipse cx="464.3525" cy="44.3705" fill="#F1F1F1" rx="74.8525" ry="17.3705" style="stroke:#181818;stroke-width:0.5;"/><text fill="#000000" font-family="sans-serif" font-size="14" lengthAdjust="spacing" textLength="101" x="410.8525" y="48.8871">Visualizar oferta</text></g><!--MD5=[94a2da8f3871fee4e9f4fe7edab52c27]
link c to crc--><g id="link_c_crc"><path d="M831.88,221.75 C817.42,245.16 799.34,274.43 786.75,294.81 " fill="none" id="c-crc" style="stroke:#181818;stroke-width:1.0;"/></g><!--MD5=[9939e643428913b34913425d4d0a08f9]
link c to roc--><g id="link_c_roc"><path d="M881.11,221.54 C902.3,258.09 925.74,314.28 904.5,359.5 C865.83,441.83 779.31,503.88 715.82,540.54 " fill="none" id="c-roc" style="stroke:#181818;stroke-width:1.0;"/></g><!--MD5=[2abb785eb7e93c91fe9e74f9ca8a0e3f]
link roc to Recalcular precios--><g id="link_roc_Recalcular precios"><path d="M600.61,622.31 C579.08,644.86 553.43,671.75 535.95,690.07 " fill="none" id="roc-to-Recalcular precios" style="stroke:#181818;stroke-width:1.0;stroke-dasharray:7.0,7.0;"/><polygon fill="#181818" points="532.13,694.07,541.2416,690.3311,535.5861,690.4568,535.4604,684.8013,532.13,694.07" style="stroke:#181818;stroke-width:1.0;"/></g><!--MD5=[705ba77a832ccb4d3d8cea12e903afc0]
link c to Gestionar nuevas reservas--><g id="link_c_Gestionar nuevas reservas"><path d="M887.14,201.28 C931.59,226.26 1012.42,271.68 1059.89,298.36 " fill="none" id="c-Gestionar nuevas reservas" style="stroke:#181818;stroke-width:1.0;"/></g><!--MD5=[c4c107737e69579e08cb6feed947721a]
reverse link roc to Bloquear temporalmente una reserva--><g id="link_roc_Bloquear temporalmente una reserva"><path d="M684.02,626.11 C702.32,645.29 723.03,666.99 738.98,683.71 " fill="none" id="roc-backto-Bloquear temporalmente una reserva" style="stroke:#181818;stroke-width:1.0;stroke-dasharray:7.0,7.0;"/><polygon fill="#181818" points="680.39,622.31,683.7013,631.5855,683.8386,625.9303,689.4938,626.0677,680.39,622.31" style="stroke:#181818;stroke-width:1.0;"/></g><!--MD5=[5eafc09fcdbf2354c319a2036336b964]
link admin to cra--><g id="link_admin_cra"><path d="M158.19,351.19 C163.86,354.3 169.71,357.17 175.5,359.5 C204.63,371.23 380.63,406.56 492.67,428.43 " fill="none" id="admin-cra" style="stroke:#181818;stroke-width:1.0;"/></g><!--MD5=[2763ed1854f51a9c02654c39f5eb59e6]
link admin to Gestionar nuevas peticiones--><g id="link_admin_Gestionar nuevas peticiones"><path d="M114.5,359.68 C114.5,380.5 114.5,405.59 114.5,423.43 " fill="none" id="admin-Gestionar nuevas peticiones" style="stroke:#181818;stroke-width:1.0;"/></g><!--MD5=[61c809ba1194b13d7caccdb33b3c1fb8]
link admin to roa--><g id="link_admin_roa"><path d="M158.25,349.29 C164.01,352.79 169.87,356.28 175.5,359.5 C222.52,386.42 278.59,415.12 312.06,431.9 " fill="none" id="admin-roa" style="stroke:#181818;stroke-width:1.0;"/></g><!--MD5=[2f07c987946627eafc9d000bdd874ded]
reverse link cr to crc--><g id="link_cr_crc"><path d="M641.09,213.93 C671.59,238.62 713.98,272.94 742.06,295.66 " fill="none" id="cr-backto-crc" style="stroke:#181818;stroke-width:1.0;"/><polygon fill="none" points="636.26,219.03,625.12,201,645.07,208.14,636.26,219.03" style="stroke:#181818;stroke-width:1.0;"/></g><!--MD5=[eed8f063ae5a1fffea387a4f71ab1224]
reverse link cr to cra--><g id="link_cr_cra"><path d="M601.03,221.71 C597.56,275.43 591.32,371.99 588.27,419.12 " fill="none" id="cr-backto-cra" style="stroke:#181818;stroke-width:1.0;"/><polygon fill="none" points="594.06,221.08,602.33,201.58,608.03,221.99,594.06,221.08" style="stroke:#181818;stroke-width:1.0;"/></g><!--MD5=[2f08ca25c007a1d8ef720017cada60a2]
link cr to be--><g id="link_cr_be"><path d="M586.11,201.28 C561.68,226.26 517.28,271.67 491.18,298.35 " fill="none" id="cr-to-be" style="stroke:#181818;stroke-width:1.0;stroke-dasharray:7.0,7.0;"/><polygon fill="#181818" points="487.47,302.15,496.6188,298.5031,490.9623,298.5718,490.8936,292.9154,487.47,302.15" style="stroke:#181818;stroke-width:1.0;"/></g><!--MD5=[793ea551b74dcc98c576663bc82cf3b5]
reverse link roa to roc--><g id="link_roa_roc"><path d="M392.78,470.8 C437.67,490.31 503.76,519.05 556.39,541.93 " fill="none" id="roa-backto-roc" style="stroke:#181818;stroke-width:1.0;"/><polygon fill="none" points="389.9,477.18,374.35,462.78,395.49,464.34,389.9,477.18" style="stroke:#181818;stroke-width:1.0;"/></g><!--MD5=[0d114b1df882a7a34d0a79c42d5037a7]
link cli to cd--><g id="link_cli_cd"><path d="M332.5,83.75 C332.5,108.73 332.5,140.39 332.5,160.79 " fill="none" id="cli-cd" style="stroke:#181818;stroke-width:1.0;"/></g><!--MD5=[37a8a45607caf41a56fcb25215a95678]
link cd to be--><g id="link_cd_be"><path d="M352.86,203.57 C378.73,229.06 423.16,272.84 449.38,298.69 " fill="none" id="cd-to-be" style="stroke:#181818;stroke-width:1.0;stroke-dasharray:7.0,7.0;"/><polygon fill="#181818" points="453.11,302.37,449.5188,293.1992,449.5531,298.856,443.8964,298.8902,453.11,302.37" style="stroke:#181818;stroke-width:1.0;"/></g><!--MD5=[be08a09955247512c28228558da415e6]
link cd to Mostrar calendario--><g id="link_cd_Mostrar calendario"><path d="M323.69,204.16 C313.01,229.2 295.08,271.25 284.07,297.07 " fill="none" id="cd-to-Mostrar calendario" style="stroke:#181818;stroke-width:1.0;stroke-dasharray:7.0,7.0;"/><polygon fill="#181818" points="282.09,301.69,289.2942,294.9744,284.0475,297.0891,281.9328,291.8424,282.09,301.69" style="stroke:#181818;stroke-width:1.0;"/></g><!--MD5=[e32a0cc743fb2878f01ed6835b8a93bc]
link cli to Visualizar oferta--><g id="link_cli_Visualizar oferta"><path d="M354.67,44.5 C366.26,44.5 377.84,44.5 389.42,44.5 " fill="none" id="cli-Visualizar oferta" style="stroke:#181818;stroke-width:1.0;"/></g><!--MD5=[0d66a8534e4599d0e31394d45bde07b3]
reverse link cli to admin--><g id="link_cli_admin"><path d="M294.21,73.65 C270.92,91.94 241.53,117.19 219.5,143.5 C183.29,186.74 151.67,243.9 132.83,281.17 " fill="none" id="cli-backto-admin" style="stroke:#181818;stroke-width:1.0;"/><polygon fill="none" points="290.1,67.98,310.24,61.39,298.61,79.1,290.1,67.98" style="stroke:#181818;stroke-width:1.0;"/></g><!--MD5=[05f2364780ab7c70cf24eacc4b6fd87d]
reverse link cli to c--><g id="link_cli_c"><path d="M370.93,83.2 C371.12,83.3 371.31,83.4 371.5,83.5 C504.8,152.16 556.91,111.97 703.5,143.5 C745.38,152.51 793.26,164.82 823.91,172.95 " fill="none" id="cli-backto-c" style="stroke:#181818;stroke-width:1.0;"/><polygon fill="none" points="366.67,88.76,354.6,71.34,374.9,77.43,366.67,88.76" style="stroke:#181818;stroke-width:1.0;"/></g><!--MD5=[4527ce1672224b2b255a92fac9b8f63a]
@startuml 
top to bottom direction
(Buscar elementos) as be
(Consultar disponibilidad) as cd
usecase cr as "Consultar reservas"

Comercial as c
usecase crc as "Consultar reservas (comercial)"
c -- crc
usecase roc as "Realizar ofertas (comercial) 
----
*extension points* 
Buscar temporalmente una reserva"
c -- roc
roc ..> (Recalcular precios)
c -- (Gestionar nuevas reservas)
roc <.. (Bloquear temporalmente una reserva) 

Administrador as admin
usecase cra as "Consultar reservas (administrador)"
admin -- cra
admin -- (Gestionar nuevas peticiones)
usecase roa as "Realizar ofertas"
admin -- roa
cr <|-- crc
cr <|-- cra
cr ..> be

roa <|-- roc
Cliente as cli

cli - cd
cd ..> be
cd ..> (Mostrar calendario)

cli - (Visualizar oferta)

cli <|--- admin
cli <|-- c




@enduml

PlantUML version 1.2022.7(Mon Aug 22 19:01:30 CEST 2022)
(GPL source distribution)
Java Runtime: Java(TM) SE Runtime Environment
JVM: Java HotSpot(TM) 64-Bit Server VM
Default Encoding: Cp1252
Language: es
Country: ES
--></g></svg>