<?xml version="1.0" encoding="UTF-8" standalone="no"?><svg xmlns="http://www.w3.org/2000/svg" xmlns:xlink="http://www.w3.org/1999/xlink" contentStyleType="text/css" height="653px" preserveAspectRatio="none" style="width:1791px;height:653px;background:#FFFFFF;" version="1.1" viewBox="0 0 1791 653" width="1791px" zoomAndPan="magnify"><defs/><g><!--MD5=[96bfbbe0eb408882ca125263830eb96e]
entity cliente --><g id="elem_cliente "><ellipse cx="211" cy="153" fill="#F1F1F1" rx="8" ry="8" style="stroke:#181818;stroke-width:0.5;"/><path d="M211,161 L211,188 M198,169 L224,169 M211,188 L198,203 M211,188 L224,203 " fill="none" style="stroke:#181818;stroke-width:0.5;"/><text fill="#000000" font-family="sans-serif" font-size="14" lengthAdjust="spacing" textLength="41" x="188.5" y="219.0332">cliente</text></g><g id="elem_Visualizar fotos"><ellipse cx="211.0785" cy="339.7157" fill="#F1F1F1" rx="79.0785" ry="18.2157" style="stroke:#181818;stroke-width:0.5;"/><text fill="#000000" font-family="sans-serif" font-size="14" lengthAdjust="spacing" textLength="112" x="153.6751" y="343.8395">-extension points-</text></g><g id="elem_Consultar fotos"><ellipse cx="79.0109" cy="478.5022" fill="#F1F1F1" rx="73.0109" ry="17.0022" style="stroke:#181818;stroke-width:0.5;"/><text fill="#000000" font-family="sans-serif" font-size="14" lengthAdjust="spacing" textLength="96" x="28.0109" y="483.0188">Consultar fotos</text></g><g id="elem_Buscar detalles en fotos"><ellipse cx="283.0702" cy="478.614" fill="#F1F1F1" rx="96.0702" ry="21.614" style="stroke:#181818;stroke-width:0.5;"/><text fill="#000000" font-family="sans-serif" font-size="14" lengthAdjust="spacing" textLength="152" x="207.0702" y="482.3426">Buscar detalles en fotos</text></g><!--MD5=[e0c44d1b4211d01c49ee332f78400776]
entity Controlador_de_fotos  --><g id="elem_Controlador_de_fotos  "><ellipse cx="754" cy="153" fill="#F1F1F1" rx="8" ry="8" style="stroke:#181818;stroke-width:0.5;"/><path d="M754,161 L754,188 M741,169 L767,169 M754,188 L741,203 M754,188 L767,203 " fill="none" style="stroke:#181818;stroke-width:0.5;"/><text fill="#000000" font-family="sans-serif" font-size="14" lengthAdjust="spacing" textLength="138" x="681" y="219.0332">Controlador_de_fotos</text></g><g id="elem_Marcar un producto"><ellipse cx="725.0066" cy="339.7013" fill="#F1F1F1" rx="84.0066" ry="19.2013" style="stroke:#181818;stroke-width:0.5;"/><text fill="#000000" font-family="sans-serif" font-size="14" lengthAdjust="spacing" textLength="124" x="663.0066" y="343.4298">Marcar un producto</text></g><g id="elem_Editar información fotos"><ellipse cx="938.7514" cy="339.3503" fill="#F1F1F1" rx="94.7514" ry="21.3503" style="stroke:#181818;stroke-width:0.5;"/><text fill="#000000" font-family="sans-serif" font-size="14" lengthAdjust="spacing" textLength="149" x="864.2514" y="343.0788">Editar información fotos</text></g><!--MD5=[f7a24e2796a58bb0f74bf7b0542a6e0c]
entity Vendedor  --><g id="elem_Vendedor  "><ellipse cx="360" cy="309" fill="#F1F1F1" rx="8" ry="8" style="stroke:#181818;stroke-width:0.5;"/><path d="M360,317 L360,344 M347,325 L373,325 M360,344 L347,359 M360,344 L373,359 " fill="none" style="stroke:#181818;stroke-width:0.5;"/><text fill="#000000" font-family="sans-serif" font-size="14" lengthAdjust="spacing" textLength="62" x="325" y="375.0332">Vendedor</text></g><g id="elem_Hacer oferta"><ellipse cx="494.7537" cy="478.2507" fill="#F1F1F1" rx="66.7537" ry="15.7507" style="stroke:#181818;stroke-width:0.5;"/><text fill="#000000" font-family="sans-serif" font-size="14" lengthAdjust="spacing" textLength="78" x="452.7537" y="482.7673">Hacer oferta</text></g><!--MD5=[db72d6d07f04b9025a8aec01b17697b8]
entity Actor_comun --><g id="elem_Actor_comun "><ellipse cx="963" cy="14" fill="#F1F1F1" rx="8" ry="8" style="stroke:#181818;stroke-width:0.5;"/><path d="M963,22 L963,49 M950,30 L976,30 M963,49 L950,64 M963,49 L976,64 " fill="none" style="stroke:#181818;stroke-width:0.5;"/><text fill="#000000" font-family="sans-serif" font-size="14" lengthAdjust="spacing" textLength="83" x="919.5" y="80.0332">Actor_comun</text></g><g id="elem_Ver ofertas"><ellipse cx="963.1463" cy="183.5942" fill="#F1F1F1" rx="61.6463" ry="15.5942" style="stroke:#181818;stroke-width:0.5;"/><text fill="#000000" font-family="sans-serif" font-size="14" lengthAdjust="spacing" textLength="70" x="925.1463" y="188.1108">Ver ofertas</text></g><!--MD5=[bb7f77e9327422e617fbd178e2830dfd]
entity Gestor --><g id="elem_Gestor "><ellipse cx="1287" cy="153" fill="#F1F1F1" rx="8" ry="8" style="stroke:#181818;stroke-width:0.5;"/><path d="M1287,161 L1287,188 M1274,169 L1300,169 M1287,188 L1274,203 M1287,188 L1300,203 " fill="none" style="stroke:#181818;stroke-width:0.5;"/><text fill="#000000" font-family="sans-serif" font-size="14" lengthAdjust="spacing" textLength="43" x="1263.5" y="219.0332">Gestor</text></g><g id="elem_Emitir factura"><ellipse cx="1137.9277" cy="339.5855" fill="#F1F1F1" rx="68.4277" ry="16.0855" style="stroke:#181818;stroke-width:0.5;"/><text fill="#000000" font-family="sans-serif" font-size="14" lengthAdjust="spacing" textLength="83" x="1093.4277" y="344.1021">Emitir factura</text></g><g id="elem_Bloquear ofertas"><ellipse cx="1443.855" cy="339.671" fill="#F1F1F1" rx="76.355" ry="17.671" style="stroke:#181818;stroke-width:0.5;"/><text fill="#000000" font-family="sans-serif" font-size="14" lengthAdjust="spacing" textLength="105" x="1388.6233" y="344.1255">Bloquear ofertas</text></g><g id="elem_Editar facturas"><ellipse cx="1627.0677" cy="339.7135" fill="#F1F1F1" rx="71.5677" ry="16.7135" style="stroke:#181818;stroke-width:0.5;"/><text fill="#000000" font-family="sans-serif" font-size="14" lengthAdjust="spacing" textLength="92" x="1578.0677" y="344.2301">Editar facturas</text></g><!--MD5=[c029a3ec44bd2b35e16a88f63db4b598]
entity Administrador --><g id="elem_Administrador "><ellipse cx="1287" cy="309" fill="#F1F1F1" rx="8" ry="8" style="stroke:#181818;stroke-width:0.5;"/><path d="M1287,317 L1287,344 M1274,325 L1300,325 M1287,344 L1274,359 M1287,344 L1300,359 " fill="none" style="stroke:#181818;stroke-width:0.5;"/><text fill="#000000" font-family="sans-serif" font-size="14" lengthAdjust="spacing" textLength="87" x="1241.5" y="375.0332">Administrador</text></g><g id="elem_Editar usuarios"><ellipse cx="1467.1476" cy="478.4295" fill="#F1F1F1" rx="72.6476" ry="16.9295" style="stroke:#181818;stroke-width:0.5;"/><text fill="#000000" font-family="sans-serif" font-size="14" lengthAdjust="spacing" textLength="95" x="1416.6476" y="482.9461">Editar usuarios</text></g><g id="elem_Crear usuarios"><ellipse cx="1286.7859" cy="478.3572" fill="#F1F1F1" rx="72.2859" ry="16.8572" style="stroke:#181818;stroke-width:0.5;"/><text fill="#000000" font-family="sans-serif" font-size="14" lengthAdjust="spacing" textLength="94" x="1236.7859" y="482.8738">Crear usuarios</text></g><!--MD5=[af137975e134d9b442c4e2e99fd3e9c7]
entity Software_facturación --><g id="elem_Software_facturación "><ellipse cx="1138" cy="153" fill="#F1F1F1" rx="8" ry="8" style="stroke:#181818;stroke-width:0.5;"/><path d="M1138,161 L1138,188 M1125,169 L1151,169 M1138,188 L1125,203 M1138,188 L1151,203 " fill="none" style="stroke:#181818;stroke-width:0.5;"/><text fill="#000000" font-family="sans-serif" font-size="14" lengthAdjust="spacing" textLength="133" x="1069.5" y="219.0332">Software_facturación</text></g><!--MD5=[4a6c9ca25e433e642cbd6ff6d36afdc7]
entity Gestor_correo --><g id="elem_Gestor_correo "><ellipse cx="1623" cy="448" fill="#F1F1F1" rx="8" ry="8" style="stroke:#181818;stroke-width:0.5;"/><path d="M1623,456 L1623,483 M1610,464 L1636,464 M1623,483 L1610,498 M1623,483 L1636,498 " fill="none" style="stroke:#181818;stroke-width:0.5;"/><text fill="#000000" font-family="sans-serif" font-size="14" lengthAdjust="spacing" textLength="92" x="1575" y="514.0332">Gestor_correo</text></g><g id="elem_Enviar correo"><ellipse cx="1519.1119" cy="621.7224" fill="#F1F1F1" rx="69.1119" ry="16.2224" style="stroke:#181818;stroke-width:0.5;"/><text fill="#000000" font-family="sans-serif" font-size="14" lengthAdjust="spacing" textLength="85" x="1473.6119" y="626.239">Enviar correo</text></g><g id="elem_Denunciar foto"><ellipse cx="517.9259" cy="183.2852" fill="#F1F1F1" rx="71.9259" ry="16.7852" style="stroke:#181818;stroke-width:0.5;"/><text fill="#000000" font-family="sans-serif" font-size="14" lengthAdjust="spacing" textLength="93" x="468.4259" y="187.8018">Denunciar foto</text></g><g id="elem_Introducir explicación"><ellipse cx="517.8923" cy="339.3785" fill="#F1F1F1" rx="87.3923" ry="19.8785" style="stroke:#181818;stroke-width:0.5;"/><text fill="#000000" font-family="sans-serif" font-size="14" lengthAdjust="spacing" textLength="132" x="451.8923" y="343.107">Introducir explicación</text></g><g id="elem_Verificar información de entrada"><ellipse cx="269.2025" cy="621.6405" fill="#F1F1F1" rx="118.7025" ry="26.1405" style="stroke:#181818;stroke-width:0.5;"/><text fill="#000000" font-family="sans-serif" font-size="14" lengthAdjust="spacing" textLength="202" x="168.2025" y="625.369">Verificar información de entrada</text></g><g id="elem_Editar elemento"><ellipse cx="1711.1111" cy="183.7222" fill="#F1F1F1" rx="74.1111" ry="17.2222" style="stroke:#181818;stroke-width:0.5;"/><text fill="#000000" font-family="sans-serif" font-size="14" lengthAdjust="spacing" textLength="99" x="1658.6111" y="188.2388">Editar elemento</text></g><g id="elem_Reducir precio productos"><ellipse cx="522.1681" cy="621.7336" fill="#F1F1F1" rx="99.1681" ry="22.2336" style="stroke:#181818;stroke-width:0.5;"/><text fill="#000000" font-family="sans-serif" font-size="14" lengthAdjust="spacing" textLength="159" x="442.6681" y="625.4621">Reducir precio productos</text></g><!--MD5=[3af4fdec0567a5985d65ce3f7f056593]
link cliente  to Visualizar fotos--><g id="link_cliente _Visualizar fotos"><path d="M211,222.57 C211,251.88 211,291.41 211,315.91 " fill="none" id="cliente -to-Visualizar fotos" style="stroke:#181818;stroke-width:1.0;"/><polygon fill="#181818" points="211,321.2,215,312.2,211,316.2,207,312.2,211,321.2" style="stroke:#181818;stroke-width:1.0;"/></g><!--MD5=[d9588f10b8406a173918d61c6d701884]
reverse link Visualizar fotos to Consultar fotos--><g id="link_Visualizar fotos_Consultar fotos"><path d="M180.78,371.86 C153.71,399.96 115.13,440 94.09,461.83 " fill="none" id="Visualizar fotos-backto-Consultar fotos" style="stroke:#181818;stroke-width:1.0;"/><polygon fill="none" points="175.9,366.84,194.81,357.3,185.98,376.56,175.9,366.84" style="stroke:#181818;stroke-width:1.0;"/></g><!--MD5=[39abcce2056d11f10448a8c524cf8843]
reverse link Visualizar fotos to Buscar detalles en fotos--><g id="link_Visualizar fotos_Buscar detalles en fotos"><path d="M229.3,375.33 C242.89,401.17 260.94,435.53 272.27,457.08 " fill="none" id="Visualizar fotos-backto-Buscar detalles en fotos" style="stroke:#181818;stroke-width:1.0;"/><polygon fill="none" points="223.08,378.53,219.97,357.57,235.47,372.02,223.08,378.53" style="stroke:#181818;stroke-width:1.0;"/></g><!--MD5=[995f9f9b0e90d39abadf00f4591a8187]
link cliente  to Consultar fotos--><g id="link_cliente _Consultar fotos"><path d="M188.37,204.81 C165.89,226.32 132.23,262.37 114,300.5 C89.13,352.54 81.93,421.3 79.85,455.8 " fill="none" id="cliente -to-Consultar fotos" style="stroke:#181818;stroke-width:1.0;"/><polygon fill="#181818" points="79.55,461.03,84.0569,452.2729,79.8352,456.0381,76.07,451.8165,79.55,461.03" style="stroke:#181818;stroke-width:1.0;"/></g><!--MD5=[7d5f22a32bc3dc255651d18c7d273c58]
link Controlador_de_fotos   to Marcar un producto--><g id="link_Controlador_de_fotos  _Marcar un producto"><path d="M746.83,222.57 C741.35,251.67 733.97,290.85 729.35,315.38 " fill="none" id="Controlador_de_fotos  -to-Marcar un producto" style="stroke:#181818;stroke-width:1.0;"/><polygon fill="#181818" points="728.41,320.39,734.0115,312.2892,729.3383,315.4769,726.1506,310.8038,728.41,320.39" style="stroke:#181818;stroke-width:1.0;"/></g><!--MD5=[cfcb8489c4966e4ac724ba55df5f5be3]
link Controlador_de_fotos   to Editar información fotos--><g id="link_Controlador_de_fotos  _Editar información fotos"><path d="M799.73,222.57 C834.65,251.64 881.64,290.75 911.12,315.29 " fill="none" id="Controlador_de_fotos  -to-Editar información fotos" style="stroke:#181818;stroke-width:1.0;"/><polygon fill="#181818" points="914.98,318.51,910.6235,309.677,911.1377,315.3105,905.5043,315.8247,914.98,318.51" style="stroke:#181818;stroke-width:1.0;"/></g><!--MD5=[ed76addeb4dbc60447f53398948f4c35]
link Vendedor   to Buscar detalles en fotos--><g id="link_Vendedor  _Buscar detalles en fotos"><path d="M338.55,378.66 C325.31,402.22 308.7,431.77 297.11,452.4 " fill="none" id="Vendedor  -to-Buscar detalles en fotos" style="stroke:#181818;stroke-width:1.0;"/><polygon fill="#181818" points="294.57,456.92,302.4604,451.0258,297.0152,452.5587,295.4823,447.1135,294.57,456.92" style="stroke:#181818;stroke-width:1.0;"/></g><!--MD5=[9cef04190faf558d47dafec05a983218]
link Vendedor   to Hacer oferta--><g id="link_Vendedor  _Hacer oferta"><path d="M395.12,376.14 C421.3,402.71 456,437.92 476.85,459.08 " fill="none" id="Vendedor  -to-Hacer oferta" style="stroke:#181818;stroke-width:1.0;"/><polygon fill="#181818" points="480.58,462.86,477.1375,453.6324,477.0804,459.2889,471.4238,459.2318,480.58,462.86" style="stroke:#181818;stroke-width:1.0;"/></g><!--MD5=[e243295b3f4ea547052cada4705f2133]
link Actor_comun  to Ver ofertas--><g id="link_Actor_comun _Ver ofertas"><path d="M963,83.66 C963,109.25 963,141.9 963,162.52 " fill="none" id="Actor_comun -to-Ver ofertas" style="stroke:#181818;stroke-width:1.0;"/><polygon fill="#181818" points="963,167.74,967,158.74,963,162.74,959,158.74,963,167.74" style="stroke:#181818;stroke-width:1.0;"/></g><!--MD5=[f63f4f20f617ed55d678b465c15ec190]
reverse link Actor_comun  to cliente --><g id="link_Actor_comun _cliente "><path d="M899.55,57.06 C741.27,85.9 334.45,160.01 233.79,178.35 " fill="none" id="Actor_comun -backto-cliente " style="stroke:#181818;stroke-width:1.0;"/><polygon fill="none" points="898.39,50.16,919.32,53.46,900.9,63.93,898.39,50.16" style="stroke:#181818;stroke-width:1.0;"/></g><!--MD5=[b9a072bce1aae9d58eb5e02e8b6228fc]
reverse link Actor_comun  to Gestor --><g id="link_Actor_comun _Gestor "><path d="M1026.24,65.9 C1079.94,84.07 1158.5,112.64 1224,144.5 C1237.44,151.04 1251.75,159.53 1263.34,166.84 " fill="none" id="Actor_comun -backto-Gestor " style="stroke:#181818;stroke-width:1.0;"/><polygon fill="none" points="1023.71,72.44,1006.96,59.47,1028.14,59.16,1023.71,72.44" style="stroke:#181818;stroke-width:1.0;"/></g><!--MD5=[57c031bb91c79eddb24c7e29673522e4]
link Gestor  to Emitir factura--><g id="link_Gestor _Emitir factura"><path d="M1263.39,208.9 C1233.67,239.62 1183.25,291.73 1156.29,319.6 " fill="none" id="Gestor -to-Emitir factura" style="stroke:#181818;stroke-width:1.0;"/><polygon fill="#181818" points="1152.49,323.53,1161.6239,319.8461,1155.9678,319.9377,1155.8762,314.2816,1152.49,323.53" style="stroke:#181818;stroke-width:1.0;"/></g><!--MD5=[99c8736b7e0b18d5ca6ea94053382652]
link Gestor  to Bloquear ofertas--><g id="link_Gestor _Bloquear ofertas"><path d="M1310.5,207.56 C1341.29,237.75 1394.74,290.18 1423.79,318.68 " fill="none" id="Gestor -to-Bloquear ofertas" style="stroke:#181818;stroke-width:1.0;"/><polygon fill="#181818" points="1427.56,322.37,1423.9318,313.2138,1423.9889,318.8704,1418.3324,318.9275,1427.56,322.37" style="stroke:#181818;stroke-width:1.0;"/></g><!--MD5=[6a13192f66537e2ad5c83c894e61ae55]
link Gestor  to Editar facturas--><g id="link_Gestor _Editar facturas"><path d="M1310.64,195.21 C1369.24,221.75 1521.53,290.73 1591.23,322.3 " fill="none" id="Gestor -to-Editar facturas" style="stroke:#181818;stroke-width:1.0;"/><polygon fill="#181818" points="1596.1,324.5,1589.5619,317.1343,1591.5482,322.431,1586.2515,324.4172,1596.1,324.5" style="stroke:#181818;stroke-width:1.0;"/></g><!--MD5=[e7c807f627d04c33537031aab3bda3f5]
link Gestor  to Administrador --><g id="link_Gestor _Administrador "><path d="M1287,222.57 C1287,239.97 1287,260.97 1287,280.28 " fill="none" id="Gestor -to-Administrador " style="stroke:#181818;stroke-width:1.0;"/><polygon fill="none" points="1294,280.34,1287,300.34,1280,280.34,1294,280.34" style="stroke:#181818;stroke-width:1.0;"/></g><!--MD5=[205d06033ae3fa357e30912561ee9644]
link Administrador  to Editar usuarios--><g id="link_Administrador _Editar usuarios"><path d="M1332.89,375.43 C1367.83,402.02 1414.57,437.59 1442.63,458.95 " fill="none" id="Administrador -to-Editar usuarios" style="stroke:#181818;stroke-width:1.0;"/><polygon fill="#181818" points="1446.64,462,1441.8941,453.37,1442.6589,458.9749,1437.054,459.7398,1446.64,462" style="stroke:#181818;stroke-width:1.0;"/></g><!--MD5=[b2761f1cf38db5e46d657ab45d82a0cb]
link Administrador  to Crear usuarios--><g id="link_Administrador _Crear usuarios"><path d="M1287,378.66 C1287,403.66 1287,435.42 1287,456.09 " fill="none" id="Administrador -to-Crear usuarios" style="stroke:#181818;stroke-width:1.0;"/><polygon fill="#181818" points="1287,461.36,1291,452.36,1287,456.36,1283,452.36,1287,461.36" style="stroke:#181818;stroke-width:1.0;"/></g><!--MD5=[bd04ed6fe9416c47290e0afd922f00a3]
link Software_facturación  to Emitir factura--><g id="link_Software_facturación _Emitir factura"><path d="M1138,222.57 C1138,252.71 1138,293.65 1138,317.95 " fill="none" id="Software_facturación -to-Emitir factura" style="stroke:#181818;stroke-width:1.0;"/><polygon fill="#181818" points="1138,323.17,1142,314.17,1138,318.17,1134,314.17,1138,323.17" style="stroke:#181818;stroke-width:1.0;"/></g><!--MD5=[69d719c194bfc0577b18122b6cf09f6e]
link Gestor_correo  to Enviar correo--><g id="link_Gestor_correo _Enviar correo"><path d="M1594.86,517.66 C1574.89,544.72 1548.94,579.91 1533.15,601.32 " fill="none" id="Gestor_correo -to-Enviar correo" style="stroke:#181818;stroke-width:1.0;"/><polygon fill="#181818" points="1530.13,605.41,1538.6914,600.5414,1533.0979,601.3862,1532.2532,595.7927,1530.13,605.41" style="stroke:#181818;stroke-width:1.0;"/></g><!--MD5=[95189ed0db925899368fbceaefc92754]
link Denunciar foto to Marcar un producto--><g id="link_Denunciar foto_Marcar un producto"><path d="M538.6,199.83 C572.74,225.23 641.61,276.46 685.4,309.04 " fill="none" id="Denunciar foto-to-Marcar un producto" style="stroke:#181818;stroke-width:1.0;"/><polygon fill="none" points="689.78,303.57,701.65,321.13,681.42,314.8,689.78,303.57" style="stroke:#181818;stroke-width:1.0;"/></g><!--MD5=[227538d6200024ddabcefe7d2ab1719b]
link Denunciar foto to Visualizar fotos--><g id="link_Denunciar foto_Visualizar fotos"><path d="M488.84,199.13 C432.39,227.45 308.33,289.68 246.91,320.49 " fill="none" id="Denunciar foto-to-Visualizar fotos" style="stroke:#181818;stroke-width:1.0;stroke-dasharray:7.0,7.0;"/><polygon fill="#181818" points="242.24,322.83,252.0781,322.3702,246.7093,320.5882,248.4913,315.2194,242.24,322.83" style="stroke:#181818;stroke-width:1.0;"/><text fill="#000000" font-family="sans-serif" font-size="13" lengthAdjust="spacing" textLength="55" x="375" y="266.9951">«Extend»</text></g><!--MD5=[cff84e882efe9bdfd494e6a282cc259a]
link Denunciar foto to Introducir explicación--><g id="link_Denunciar foto_Introducir explicación"><path d="M518,200.69 C518,227.7 518,282.12 518,313.89 " fill="none" id="Denunciar foto-to-Introducir explicación" style="stroke:#181818;stroke-width:1.0;stroke-dasharray:7.0,7.0;"/><polygon fill="#181818" points="518,319.17,522,310.17,518,314.17,514,310.17,518,319.17" style="stroke:#181818;stroke-width:1.0;"/><text fill="#000000" font-family="sans-serif" font-size="13" lengthAdjust="spacing" textLength="55" x="519" y="266.9951">«Include»</text></g><!--MD5=[7b14d1b312d1845c80df919061aa8573]
link Buscar detalles en fotos to Verificar información de entrada--><g id="link_Buscar detalles en fotos_Verificar información de entrada"><path d="M280.96,500 C278.62,523.63 274.74,562.7 272.04,589.92 " fill="none" id="Buscar detalles en fotos-to-Verificar información de entrada" style="stroke:#181818;stroke-width:1.0;stroke-dasharray:7.0,7.0;"/><polygon fill="#181818" points="271.51,595.2,276.3881,586.6441,272.0089,590.225,268.428,585.8458,271.51,595.2" style="stroke:#181818;stroke-width:1.0;"/><text fill="#000000" font-family="sans-serif" font-size="13" lengthAdjust="spacing" textLength="55" x="277" y="561.9951">«Include»</text></g><!--MD5=[5be0ee0bb8fc2729d02495d038c8640f]
link Editar elemento to Editar usuarios--><g id="link_Editar elemento_Editar usuarios"><path d="M1717.18,200.58 C1729.74,236.22 1754.02,323.07 1716,378.5 C1673.42,440.58 1627.85,411.44 1558,439.5 C1545.23,444.63 1531.52,450.28 1518.7,455.62 " fill="none" id="Editar elemento-to-Editar usuarios" style="stroke:#181818;stroke-width:1.0;"/><polygon fill="none" points="1521.34,462.11,1500.19,463.39,1515.93,449.2,1521.34,462.11" style="stroke:#181818;stroke-width:1.0;"/></g><!--MD5=[c2fc167fb9644c3ae69afdb072406175]
link Editar elemento to Editar facturas--><g id="link_Editar elemento_Editar facturas"><path d="M1702.33,200.4 C1688.93,224.97 1662.9,272.69 1645.23,305.07 " fill="none" id="Editar elemento-to-Editar facturas" style="stroke:#181818;stroke-width:1.0;"/><polygon fill="none" points="1651.22,308.71,1635.5,322.92,1638.93,302.01,1651.22,308.71" style="stroke:#181818;stroke-width:1.0;"/></g><!--MD5=[8dda723358a0fd548ad449c0b7c72031]
link Crear usuarios to Enviar correo--><g id="link_Crear usuarios_Enviar correo"><path d="M1311.83,494.59 C1355.45,521.1 1445.54,575.86 1491.19,603.6 " fill="none" id="Crear usuarios-to-Enviar correo" style="stroke:#181818;stroke-width:1.0;stroke-dasharray:7.0,7.0;"/><polygon fill="#181818" points="1495.73,606.36,1490.122,598.2637,1491.459,603.7603,1485.9624,605.0973,1495.73,606.36" style="stroke:#181818;stroke-width:1.0;"/><text fill="#000000" font-family="sans-serif" font-size="13" lengthAdjust="spacing" textLength="55" x="1424" y="561.9951">«Include»</text></g><!--MD5=[6b530d630d1b4f762f28b7e0aa91a782]
reverse link Hacer oferta to Reducir precio productos--><g id="link_Hacer oferta_Reducir precio productos"><path d="M498.85,499.59 C503.9,525.97 512.73,572.1 517.9,599.11 " fill="none" id="Hacer oferta-backto-Reducir precio productos" style="stroke:#181818;stroke-width:1.0;stroke-dasharray:7.0,7.0;"/><polygon fill="#181818" points="497.89,494.59,495.6575,504.1825,498.8321,499.5004,503.5142,502.6751,497.89,494.59" style="stroke:#181818;stroke-width:1.0;"/><text fill="#000000" font-family="sans-serif" font-size="13" lengthAdjust="spacing" textLength="55" x="512" y="561.9951">«Extend»</text></g><!--MD5=[603faa45c3dffa4e474ed2152b162f59]
@startuml

 :cliente :- -> (Visualizar fotos)  
 (Visualizar fotos)  <|- - (Consultar fotos)
 (Visualizar fotos)  <|- - (Buscar detalles en fotos)
 :cliente : - ->   (Consultar fotos)
 :Controlador_de_fotos  :- ->   (Marcar un producto)
 :Controlador_de_fotos  :- ->   (Editar información fotos)
 :Vendedor  :- -> (Buscar detalles en fotos)
 :Vendedor  :- ->  (Hacer oferta)
 :Actor_comun :- ->  (Ver ofertas)
 :Actor_comun : <|- - :cliente :
  :Actor_comun : <|- - :Gestor :
 :Gestor :- -> (Emitir factura)
  :Gestor :- -> (Bloquear ofertas)
   :Gestor :- -> (Editar facturas)
   :Gestor :- -|> :Administrador :
 :Administrador : - -> (Editar usuarios)
:Administrador : - ->  (Crear usuarios)
 :Software_facturación :- -> (Emitir factura)
 :Gestor_correo : - ->  (Enviar correo)
 (Denunciar foto)- -|>   (Marcar un producto)
 (Denunciar foto)- -> (Visualizar fotos)#line.dashed;text:black : <<Extend>>
 (Denunciar foto)- ->  (Introducir explicación)#line.dashed;text:black : <<Include>>
 (Buscar detalles en fotos) - ->   (Verificar información de entrada)#line.dashed;text:black : <<Include>>
 (Editar elemento) - -|> (Editar usuarios)
 (Editar elemento) - -|> (Editar facturas) 
 (Crear usuarios) - ->(Enviar correo)#line.dashed;text:black :  <<Include>>
 (Hacer oferta) <- -(Reducir precio productos)#line.dashed;text:black : <<Extend>>
(Visualizar fotos) as "-extension points-"
@enduml

PlantUML version 1.2022.7(Mon Aug 22 19:01:30 CEST 2022)
(GPL source distribution)
Java Runtime: Java(TM) SE Runtime Environment
JVM: Java HotSpot(TM) 64-Bit Server VM
Default Encoding: Cp1252
Language: es
Country: ES
--></g></svg>