<?xml version="1.0" encoding="UTF-8" standalone="no"?><svg xmlns="http://www.w3.org/2000/svg" xmlns:xlink="http://www.w3.org/1999/xlink" contentStyleType="text/css" height="653px" preserveAspectRatio="none" style="width:1779px;height:653px;background:#FFFFFF;" version="1.1" viewBox="0 0 1779 653" width="1779px" zoomAndPan="magnify"><defs/><g><!--MD5=[96bfbbe0eb408882ca125263830eb96e]
entity cliente --><g id="elem_cliente "><ellipse cx="205" cy="153" fill="#F1F1F1" rx="8" ry="8" style="stroke:#181818;stroke-width:0.5;"/><path d="M205,161 L205,188 M192,169 L218,169 M205,188 L192,203 M205,188 L218,203 " fill="none" style="stroke:#181818;stroke-width:0.5;"/><text fill="#000000" font-family="sans-serif" font-size="14" lengthAdjust="spacing" textLength="41" x="182.5" y="219.0332">cliente</text></g><g id="elem_Visualizar fotos"><ellipse cx="205.1476" cy="339.4295" fill="#F1F1F1" rx="72.6476" ry="16.9295" style="stroke:#181818;stroke-width:0.5;"/><text fill="#000000" font-family="sans-serif" font-size="14" lengthAdjust="spacing" textLength="95" x="154.6476" y="343.9461">Visualizar fotos</text></g><g id="elem_Consultar fotos"><ellipse cx="79.0109" cy="478.5022" fill="#F1F1F1" rx="73.0109" ry="17.0022" style="stroke:#181818;stroke-width:0.5;"/><text fill="#000000" font-family="sans-serif" font-size="14" lengthAdjust="spacing" textLength="96" x="28.0109" y="483.0188">Consultar fotos</text></g><g id="elem_Buscar detalles en fotos"><ellipse cx="283.0702" cy="478.614" fill="#F1F1F1" rx="96.0702" ry="21.614" style="stroke:#181818;stroke-width:0.5;"/><text fill="#000000" font-family="sans-serif" font-size="14" lengthAdjust="spacing" textLength="152" x="207.0702" y="482.3426">Buscar detalles en fotos</text></g><!--MD5=[e0c44d1b4211d01c49ee332f78400776]
entity Controlador_de_fotos  --><g id="elem_Controlador_de_fotos  "><ellipse cx="713" cy="153" fill="#F1F1F1" rx="8" ry="8" style="stroke:#181818;stroke-width:0.5;"/><path d="M713,161 L713,188 M700,169 L726,169 M713,188 L700,203 M713,188 L726,203 " fill="none" style="stroke:#181818;stroke-width:0.5;"/><text fill="#000000" font-family="sans-serif" font-size="14" lengthAdjust="spacing" textLength="138" x="640" y="219.0332">Controlador_de_fotos</text></g><g id="elem_Marcar un producto"><ellipse cx="713.0066" cy="339.7013" fill="#F1F1F1" rx="84.0066" ry="19.2013" style="stroke:#181818;stroke-width:0.5;"/><text fill="#000000" font-family="sans-serif" font-size="14" lengthAdjust="spacing" textLength="124" x="651.0066" y="343.4298">Marcar un producto</text></g><g id="elem_Editar información fotos"><ellipse cx="926.7514" cy="339.3503" fill="#F1F1F1" rx="94.7514" ry="21.3503" style="stroke:#181818;stroke-width:0.5;"/><text fill="#000000" font-family="sans-serif" font-size="14" lengthAdjust="spacing" textLength="149" x="852.2514" y="343.0788">Editar información fotos</text></g><!--MD5=[f7a24e2796a58bb0f74bf7b0542a6e0c]
entity Vendedor  --><g id="elem_Vendedor  "><ellipse cx="348" cy="309" fill="#F1F1F1" rx="8" ry="8" style="stroke:#181818;stroke-width:0.5;"/><path d="M348,317 L348,344 M335,325 L361,325 M348,344 L335,359 M348,344 L361,359 " fill="none" style="stroke:#181818;stroke-width:0.5;"/><text fill="#000000" font-family="sans-serif" font-size="14" lengthAdjust="spacing" textLength="62" x="313" y="375.0332">Vendedor</text></g><g id="elem_Hacer oferta"><ellipse cx="494.7537" cy="478.2507" fill="#F1F1F1" rx="66.7537" ry="15.7507" style="stroke:#181818;stroke-width:0.5;"/><text fill="#000000" font-family="sans-serif" font-size="14" lengthAdjust="spacing" textLength="78" x="452.7537" y="482.7673">Hacer oferta</text></g><!--MD5=[db72d6d07f04b9025a8aec01b17697b8]
entity Actor_comun --><g id="elem_Actor_comun "><ellipse cx="703" cy="14" fill="#F1F1F1" rx="8" ry="8" style="stroke:#181818;stroke-width:0.5;"/><path d="M703,22 L703,49 M690,30 L716,30 M703,49 L690,64 M703,49 L716,64 " fill="none" style="stroke:#181818;stroke-width:0.5;"/><text fill="#000000" font-family="sans-serif" font-size="14" lengthAdjust="spacing" textLength="83" x="659.5" y="80.0332">Actor_comun</text></g><g id="elem_Ver ofertas"><ellipse cx="883.1463" cy="183.5942" fill="#F1F1F1" rx="61.6463" ry="15.5942" style="stroke:#181818;stroke-width:0.5;"/><text fill="#000000" font-family="sans-serif" font-size="14" lengthAdjust="spacing" textLength="70" x="845.1463" y="188.1108">Ver ofertas</text></g><!--MD5=[86018e77de72e037cca57d4b76786b44]
entity Actor_comun--><g id="elem_Actor_comun"><ellipse cx="1392" cy="14" fill="#F1F1F1" rx="8" ry="8" style="stroke:#181818;stroke-width:0.5;"/><path d="M1392,22 L1392,49 M1379,30 L1405,30 M1392,49 L1379,64 M1392,49 L1405,64 " fill="none" style="stroke:#181818;stroke-width:0.5;"/><text fill="#000000" font-family="sans-serif" font-size="14" lengthAdjust="spacing" textLength="83" x="1350.5" y="80.0332">Actor_comun</text></g><!--MD5=[bb7f77e9327422e617fbd178e2830dfd]
entity Gestor --><g id="elem_Gestor "><ellipse cx="1392" cy="153" fill="#F1F1F1" rx="8" ry="8" style="stroke:#181818;stroke-width:0.5;"/><path d="M1392,161 L1392,188 M1379,169 L1405,169 M1392,188 L1379,203 M1392,188 L1405,203 " fill="none" style="stroke:#181818;stroke-width:0.5;"/><text fill="#000000" font-family="sans-serif" font-size="14" lengthAdjust="spacing" textLength="43" x="1368.5" y="219.0332">Gestor</text></g><g id="elem_Emitir factura"><ellipse cx="1125.9277" cy="339.5855" fill="#F1F1F1" rx="68.4277" ry="16.0855" style="stroke:#181818;stroke-width:0.5;"/><text fill="#000000" font-family="sans-serif" font-size="14" lengthAdjust="spacing" textLength="83" x="1081.4277" y="344.1021">Emitir factura</text></g><g id="elem_Bloquear ofertas"><ellipse cx="1431.855" cy="339.671" fill="#F1F1F1" rx="76.355" ry="17.671" style="stroke:#181818;stroke-width:0.5;"/><text fill="#000000" font-family="sans-serif" font-size="14" lengthAdjust="spacing" textLength="105" x="1376.6233" y="344.1255">Bloquear ofertas</text></g><g id="elem_Editar facturas"><ellipse cx="1615.0677" cy="339.7135" fill="#F1F1F1" rx="71.5677" ry="16.7135" style="stroke:#181818;stroke-width:0.5;"/><text fill="#000000" font-family="sans-serif" font-size="14" lengthAdjust="spacing" textLength="92" x="1566.0677" y="344.2301">Editar facturas</text></g><!--MD5=[c029a3ec44bd2b35e16a88f63db4b598]
entity Administrador --><g id="elem_Administrador "><ellipse cx="1275" cy="309" fill="#F1F1F1" rx="8" ry="8" style="stroke:#181818;stroke-width:0.5;"/><path d="M1275,317 L1275,344 M1262,325 L1288,325 M1275,344 L1262,359 M1275,344 L1288,359 " fill="none" style="stroke:#181818;stroke-width:0.5;"/><text fill="#000000" font-family="sans-serif" font-size="14" lengthAdjust="spacing" textLength="87" x="1229.5" y="375.0332">Administrador</text></g><g id="elem_Editar usuarios"><ellipse cx="1455.1476" cy="478.4295" fill="#F1F1F1" rx="72.6476" ry="16.9295" style="stroke:#181818;stroke-width:0.5;"/><text fill="#000000" font-family="sans-serif" font-size="14" lengthAdjust="spacing" textLength="95" x="1404.6476" y="482.9461">Editar usuarios</text></g><g id="elem_Crear usuarios"><ellipse cx="1274.7859" cy="478.3572" fill="#F1F1F1" rx="72.2859" ry="16.8572" style="stroke:#181818;stroke-width:0.5;"/><text fill="#000000" font-family="sans-serif" font-size="14" lengthAdjust="spacing" textLength="94" x="1224.7859" y="482.8738">Crear usuarios</text></g><!--MD5=[af137975e134d9b442c4e2e99fd3e9c7]
entity Software_facturación --><g id="elem_Software_facturación "><ellipse cx="1126" cy="153" fill="#F1F1F1" rx="8" ry="8" style="stroke:#181818;stroke-width:0.5;"/><path d="M1126,161 L1126,188 M1113,169 L1139,169 M1126,188 L1113,203 M1126,188 L1139,203 " fill="none" style="stroke:#181818;stroke-width:0.5;"/><text fill="#000000" font-family="sans-serif" font-size="14" lengthAdjust="spacing" textLength="133" x="1057.5" y="219.0332">Software_facturación</text></g><!--MD5=[4a6c9ca25e433e642cbd6ff6d36afdc7]
entity Gestor_correo --><g id="elem_Gestor_correo "><ellipse cx="1611" cy="448" fill="#F1F1F1" rx="8" ry="8" style="stroke:#181818;stroke-width:0.5;"/><path d="M1611,456 L1611,483 M1598,464 L1624,464 M1611,483 L1598,498 M1611,483 L1624,498 " fill="none" style="stroke:#181818;stroke-width:0.5;"/><text fill="#000000" font-family="sans-serif" font-size="14" lengthAdjust="spacing" textLength="92" x="1563" y="514.0332">Gestor_correo</text></g><g id="elem_Enviar correo"><ellipse cx="1507.1119" cy="621.7224" fill="#F1F1F1" rx="69.1119" ry="16.2224" style="stroke:#181818;stroke-width:0.5;"/><text fill="#000000" font-family="sans-serif" font-size="14" lengthAdjust="spacing" textLength="85" x="1461.6119" y="626.239">Enviar correo</text></g><g id="elem_Denunciar foto"><ellipse cx="505.9259" cy="183.2852" fill="#F1F1F1" rx="71.9259" ry="16.7852" style="stroke:#181818;stroke-width:0.5;"/><text fill="#000000" font-family="sans-serif" font-size="14" lengthAdjust="spacing" textLength="93" x="456.4259" y="187.8018">Denunciar foto</text></g><g id="elem_Introducir explicación"><ellipse cx="505.8923" cy="339.3785" fill="#F1F1F1" rx="87.3923" ry="19.8785" style="stroke:#181818;stroke-width:0.5;"/><text fill="#000000" font-family="sans-serif" font-size="14" lengthAdjust="spacing" textLength="132" x="439.8923" y="343.107">Introducir explicación</text></g><g id="elem_Verificar información de entrada"><ellipse cx="269.2025" cy="621.6405" fill="#F1F1F1" rx="118.7025" ry="26.1405" style="stroke:#181818;stroke-width:0.5;"/><text fill="#000000" font-family="sans-serif" font-size="14" lengthAdjust="spacing" textLength="202" x="168.2025" y="625.369">Verificar información de entrada</text></g><g id="elem_Editar elemento"><ellipse cx="1699.1111" cy="183.7222" fill="#F1F1F1" rx="74.1111" ry="17.2222" style="stroke:#181818;stroke-width:0.5;"/><text fill="#000000" font-family="sans-serif" font-size="14" lengthAdjust="spacing" textLength="99" x="1646.6111" y="188.2388">Editar elemento</text></g><g id="elem_Reducir precio productos"><ellipse cx="522.1681" cy="621.7336" fill="#F1F1F1" rx="99.1681" ry="22.2336" style="stroke:#181818;stroke-width:0.5;"/><text fill="#000000" font-family="sans-serif" font-size="14" lengthAdjust="spacing" textLength="159" x="442.6681" y="625.4621">Reducir precio productos</text></g><!--MD5=[3af4fdec0567a5985d65ce3f7f056593]
link cliente  to Visualizar fotos--><g id="link_cliente _Visualizar fotos"><path d="M205,222.57 C205,252.38 205,292.75 205,317.14 " fill="none" id="cliente -to-Visualizar fotos" style="stroke:#181818;stroke-width:1.0;"/><polygon fill="#181818" points="205,322.39,209,313.39,205,317.39,201,313.39,205,322.39" style="stroke:#181818;stroke-width:1.0;"/></g><!--MD5=[d9588f10b8406a173918d61c6d701884]
reverse link Visualizar fotos to Consultar fotos--><g id="link_Visualizar fotos_Consultar fotos"><path d="M176.91,371.05 C151.14,399.06 114,439.44 93.67,461.55 " fill="none" id="Visualizar fotos-backto-Consultar fotos" style="stroke:#181818;stroke-width:1.0;"/><polygon fill="none" points="171.86,366.2,190.55,356.22,182.16,375.68,171.86,366.2" style="stroke:#181818;stroke-width:1.0;"/></g><!--MD5=[39abcce2056d11f10448a8c524cf8843]
reverse link Visualizar fotos to Buscar detalles en fotos--><g id="link_Visualizar fotos_Buscar detalles en fotos"><path d="M224.14,374.11 C238.84,399.94 258.69,434.8 271.16,456.71 " fill="none" id="Visualizar fotos-backto-Buscar detalles en fotos" style="stroke:#181818;stroke-width:1.0;"/><polygon fill="none" points="217.91,377.33,214.1,356.48,230.08,370.4,217.91,377.33" style="stroke:#181818;stroke-width:1.0;"/></g><!--MD5=[995f9f9b0e90d39abadf00f4591a8187]
link cliente  to Consultar fotos--><g id="link_cliente _Consultar fotos"><path d="M182.12,207.23 C161.38,229.19 131.59,264.36 115,300.5 C90.91,352.98 82.85,421.55 80.22,455.9 " fill="none" id="cliente -to-Consultar fotos" style="stroke:#181818;stroke-width:1.0;"/><polygon fill="#181818" points="79.85,461.11,84.4828,452.4188,80.2073,456.1228,76.5033,451.8472,79.85,461.11" style="stroke:#181818;stroke-width:1.0;"/></g><!--MD5=[7d5f22a32bc3dc255651d18c7d273c58]
link Controlador_de_fotos   to Marcar un producto--><g id="link_Controlador_de_fotos  _Marcar un producto"><path d="M713,222.57 C713,251.67 713,290.85 713,315.38 " fill="none" id="Controlador_de_fotos  -to-Marcar un producto" style="stroke:#181818;stroke-width:1.0;"/><polygon fill="#181818" points="713,320.39,717,311.39,713,315.39,709,311.39,713,320.39" style="stroke:#181818;stroke-width:1.0;"/></g><!--MD5=[cfcb8489c4966e4ac724ba55df5f5be3]
link Controlador_de_fotos   to Editar información fotos--><g id="link_Controlador_de_fotos  _Editar información fotos"><path d="M765.9,222.57 C806.41,251.72 860.96,290.98 895.05,315.51 " fill="none" id="Controlador_de_fotos  -to-Editar información fotos" style="stroke:#181818;stroke-width:1.0;"/><polygon fill="#181818" points="899.51,318.72,894.5537,310.2091,895.4559,315.7936,889.8714,316.6958,899.51,318.72" style="stroke:#181818;stroke-width:1.0;"/></g><!--MD5=[ed76addeb4dbc60447f53398948f4c35]
link Vendedor   to Buscar detalles en fotos--><g id="link_Vendedor  _Buscar detalles en fotos"><path d="M329.89,378.66 C318.72,402.22 304.7,431.77 294.91,452.4 " fill="none" id="Vendedor  -to-Buscar detalles en fotos" style="stroke:#181818;stroke-width:1.0;"/><polygon fill="#181818" points="292.77,456.92,300.243,450.5048,294.9141,452.4031,293.0159,447.0742,292.77,456.92" style="stroke:#181818;stroke-width:1.0;"/></g><!--MD5=[9cef04190faf558d47dafec05a983218]
link Vendedor   to Hacer oferta--><g id="link_Vendedor  _Hacer oferta"><path d="M383.21,373.31 C412.12,400.25 451.98,437.41 475.47,459.3 " fill="none" id="Vendedor  -to-Hacer oferta" style="stroke:#181818;stroke-width:1.0;"/><polygon fill="#181818" points="479.38,462.94,475.5121,453.8824,475.7181,459.5356,470.065,459.7415,479.38,462.94" style="stroke:#181818;stroke-width:1.0;"/></g><!--MD5=[e243295b3f4ea547052cada4705f2133]
link Actor_comun  to Ver ofertas--><g id="link_Actor_comun _Ver ofertas"><path d="M746.57,78.66 C782.47,105.99 831.94,143.64 860.39,165.29 " fill="none" id="Actor_comun -to-Ver ofertas" style="stroke:#181818;stroke-width:1.0;"/><polygon fill="#181818" points="864.43,168.37,859.699,159.7318,860.4542,165.3381,854.8479,166.0932,864.43,168.37" style="stroke:#181818;stroke-width:1.0;"/></g><!--MD5=[f63f4f20f617ed55d678b465c15ec190]
reverse link Actor_comun  to cliente --><g id="link_Actor_comun _cliente "><path d="M639.76,62.9 C527.85,93.68 299.9,156.39 227.56,176.29 " fill="none" id="Actor_comun -backto-cliente " style="stroke:#181818;stroke-width:1.0;"/><polygon fill="none" points="638.1,56.09,659.24,57.54,641.82,69.59,638.1,56.09" style="stroke:#181818;stroke-width:1.0;"/></g><!--MD5=[bf2934a5b543b26e1b616315ffe247e1]
reverse link Actor_comun to Gestor --><g id="link_Actor_comun_Gestor "><path d="M1392,103.66 C1392,117.32 1392,131.53 1392,144.07 " fill="none" id="Actor_comun-backto-Gestor " style="stroke:#181818;stroke-width:1.0;"/><polygon fill="none" points="1385,103.66,1392,83.66,1399,103.66,1385,103.66" style="stroke:#181818;stroke-width:1.0;"/></g><!--MD5=[57c031bb91c79eddb24c7e29673522e4]
link Gestor  to Emitir factura--><g id="link_Gestor _Emitir factura"><path d="M1368.39,198.17 C1319.64,226.39 1207.97,291.04 1154.96,321.74 " fill="none" id="Gestor -to-Emitir factura" style="stroke:#181818;stroke-width:1.0;"/><polygon fill="#181818" points="1150.32,324.42,1160.1141,323.3826,1154.6497,321.9193,1156.113,316.455,1150.32,324.42" style="stroke:#181818;stroke-width:1.0;"/></g><!--MD5=[99c8736b7e0b18d5ca6ea94053382652]
link Gestor  to Bloquear ofertas--><g id="link_Gestor _Bloquear ofertas"><path d="M1401.89,222.57 C1409.62,252.34 1420.09,292.64 1426.43,317.04 " fill="none" id="Gestor -to-Bloquear ofertas" style="stroke:#181818;stroke-width:1.0;"/><polygon fill="#181818" points="1427.71,322,1429.3203,312.2837,1426.4537,317.1604,1421.577,314.2938,1427.71,322" style="stroke:#181818;stroke-width:1.0;"/></g><!--MD5=[6a13192f66537e2ad5c83c894e61ae55]
link Gestor  to Editar facturas--><g id="link_Gestor _Editar facturas"><path d="M1415.86,200.98 C1458.12,230.16 1545.74,290.67 1589.28,320.74 " fill="none" id="Gestor -to-Editar facturas" style="stroke:#181818;stroke-width:1.0;"/><polygon fill="#181818" points="1593.61,323.73,1588.4795,315.323,1589.4965,320.8877,1583.9318,321.9046,1593.61,323.73" style="stroke:#181818;stroke-width:1.0;"/></g><!--MD5=[e7c807f627d04c33537031aab3bda3f5]
link Gestor  to Administrador --><g id="link_Gestor _Administrador "><path d="M1368.32,215.66 C1353.39,235.33 1333.69,261.25 1316.24,284.22 " fill="none" id="Gestor -to-Administrador " style="stroke:#181818;stroke-width:1.0;"/><polygon fill="none" points="1321.7,288.6,1304.03,300.29,1310.55,280.13,1321.7,288.6" style="stroke:#181818;stroke-width:1.0;"/></g><!--MD5=[205d06033ae3fa357e30912561ee9644]
link Administrador  to Editar usuarios--><g id="link_Administrador _Editar usuarios"><path d="M1320.89,375.43 C1355.83,402.02 1402.57,437.59 1430.63,458.95 " fill="none" id="Administrador -to-Editar usuarios" style="stroke:#181818;stroke-width:1.0;"/><polygon fill="#181818" points="1434.64,462,1429.8941,453.37,1430.6589,458.9749,1425.054,459.7398,1434.64,462" style="stroke:#181818;stroke-width:1.0;"/></g><!--MD5=[b2761f1cf38db5e46d657ab45d82a0cb]
link Administrador  to Crear usuarios--><g id="link_Administrador _Crear usuarios"><path d="M1275,378.66 C1275,403.66 1275,435.42 1275,456.09 " fill="none" id="Administrador -to-Crear usuarios" style="stroke:#181818;stroke-width:1.0;"/><polygon fill="#181818" points="1275,461.36,1279,452.36,1275,456.36,1271,452.36,1275,461.36" style="stroke:#181818;stroke-width:1.0;"/></g><!--MD5=[bd04ed6fe9416c47290e0afd922f00a3]
link Software_facturación  to Emitir factura--><g id="link_Software_facturación _Emitir factura"><path d="M1126,222.57 C1126,252.71 1126,293.65 1126,317.95 " fill="none" id="Software_facturación -to-Emitir factura" style="stroke:#181818;stroke-width:1.0;"/><polygon fill="#181818" points="1126,323.17,1130,314.17,1126,318.17,1122,314.17,1126,323.17" style="stroke:#181818;stroke-width:1.0;"/></g><!--MD5=[69d719c194bfc0577b18122b6cf09f6e]
link Gestor_correo  to Enviar correo--><g id="link_Gestor_correo _Enviar correo"><path d="M1582.86,517.66 C1562.89,544.72 1536.94,579.91 1521.15,601.32 " fill="none" id="Gestor_correo -to-Enviar correo" style="stroke:#181818;stroke-width:1.0;"/><polygon fill="#181818" points="1518.13,605.41,1526.6914,600.5414,1521.0979,601.3862,1520.2532,595.7927,1518.13,605.41" style="stroke:#181818;stroke-width:1.0;"/></g><!--MD5=[95189ed0db925899368fbceaefc92754]
link Denunciar foto to Marcar un producto--><g id="link_Denunciar foto_Marcar un producto"><path d="M526.6,199.83 C560.74,225.23 629.61,276.46 673.4,309.04 " fill="none" id="Denunciar foto-to-Marcar un producto" style="stroke:#181818;stroke-width:1.0;"/><polygon fill="none" points="677.78,303.57,689.65,321.13,669.42,314.8,677.78,303.57" style="stroke:#181818;stroke-width:1.0;"/></g><!--MD5=[227538d6200024ddabcefe7d2ab1719b]
link Denunciar foto to Visualizar fotos--><g id="link_Denunciar foto_Visualizar fotos"><path d="M477.41,199.13 C421.49,227.74 297.91,290.97 238.36,321.43 " fill="none" id="Denunciar foto-to-Visualizar fotos" style="stroke:#181818;stroke-width:1.0;stroke-dasharray:7.0,7.0;"/><polygon fill="#181818" points="233.84,323.75,243.6736,323.2024,238.2891,321.4684,240.0231,316.0839,233.84,323.75" style="stroke:#181818;stroke-width:1.0;"/><text fill="#000000" font-family="sans-serif" font-size="13" lengthAdjust="spacing" textLength="55" x="366" y="266.9951">«Extend»</text></g><!--MD5=[cff84e882efe9bdfd494e6a282cc259a]
link Denunciar foto to Introducir explicación--><g id="link_Denunciar foto_Introducir explicación"><path d="M506,200.69 C506,227.7 506,282.12 506,313.89 " fill="none" id="Denunciar foto-to-Introducir explicación" style="stroke:#181818;stroke-width:1.0;stroke-dasharray:7.0,7.0;"/><polygon fill="#181818" points="506,319.17,510,310.17,506,314.17,502,310.17,506,319.17" style="stroke:#181818;stroke-width:1.0;"/><text fill="#000000" font-family="sans-serif" font-size="13" lengthAdjust="spacing" textLength="55" x="507" y="266.9951">«Include»</text></g><!--MD5=[7b14d1b312d1845c80df919061aa8573]
link Buscar detalles en fotos to Verificar información de entrada--><g id="link_Buscar detalles en fotos_Verificar información de entrada"><path d="M280.96,500 C278.62,523.63 274.74,562.7 272.04,589.92 " fill="none" id="Buscar detalles en fotos-to-Verificar información de entrada" style="stroke:#181818;stroke-width:1.0;stroke-dasharray:7.0,7.0;"/><polygon fill="#181818" points="271.51,595.2,276.3881,586.6441,272.0089,590.225,268.428,585.8458,271.51,595.2" style="stroke:#181818;stroke-width:1.0;"/><text fill="#000000" font-family="sans-serif" font-size="13" lengthAdjust="spacing" textLength="55" x="277" y="561.9951">«Include»</text></g><!--MD5=[5be0ee0bb8fc2729d02495d038c8640f]
link Editar elemento to Editar usuarios--><g id="link_Editar elemento_Editar usuarios"><path d="M1705.18,200.58 C1717.74,236.22 1742.02,323.07 1704,378.5 C1661.42,440.58 1615.85,411.44 1546,439.5 C1533.23,444.63 1519.52,450.28 1506.7,455.62 " fill="none" id="Editar elemento-to-Editar usuarios" style="stroke:#181818;stroke-width:1.0;"/><polygon fill="none" points="1509.34,462.11,1488.19,463.39,1503.93,449.2,1509.34,462.11" style="stroke:#181818;stroke-width:1.0;"/></g><!--MD5=[c2fc167fb9644c3ae69afdb072406175]
link Editar elemento to Editar facturas--><g id="link_Editar elemento_Editar facturas"><path d="M1690.33,200.4 C1676.93,224.97 1650.9,272.69 1633.23,305.07 " fill="none" id="Editar elemento-to-Editar facturas" style="stroke:#181818;stroke-width:1.0;"/><polygon fill="none" points="1639.22,308.71,1623.5,322.92,1626.93,302.01,1639.22,308.71" style="stroke:#181818;stroke-width:1.0;"/></g><!--MD5=[8dda723358a0fd548ad449c0b7c72031]
link Crear usuarios to Enviar correo--><g id="link_Crear usuarios_Enviar correo"><path d="M1299.83,494.59 C1343.45,521.1 1433.54,575.86 1479.19,603.6 " fill="none" id="Crear usuarios-to-Enviar correo" style="stroke:#181818;stroke-width:1.0;stroke-dasharray:7.0,7.0;"/><polygon fill="#181818" points="1483.73,606.36,1478.122,598.2637,1479.459,603.7603,1473.9624,605.0973,1483.73,606.36" style="stroke:#181818;stroke-width:1.0;"/><text fill="#000000" font-family="sans-serif" font-size="13" lengthAdjust="spacing" textLength="55" x="1412" y="561.9951">«Include»</text></g><!--MD5=[6b530d630d1b4f762f28b7e0aa91a782]
reverse link Hacer oferta to Reducir precio productos--><g id="link_Hacer oferta_Reducir precio productos"><path d="M498.85,499.59 C503.9,525.97 512.73,572.1 517.9,599.11 " fill="none" id="Hacer oferta-backto-Reducir precio productos" style="stroke:#181818;stroke-width:1.0;stroke-dasharray:7.0,7.0;"/><polygon fill="#181818" points="497.89,494.59,495.6575,504.1825,498.8321,499.5004,503.5142,502.6751,497.89,494.59" style="stroke:#181818;stroke-width:1.0;"/><text fill="#000000" font-family="sans-serif" font-size="13" lengthAdjust="spacing" textLength="55" x="512" y="561.9951">«Extend»</text></g><!--MD5=[d12f871235f0965c2e37a232bde56077]
@startuml
:cliente :- -> (Visualizar fotos)  
 (Visualizar fotos)  <|- - (Consultar fotos)
 (Visualizar fotos)  <|- - (Buscar detalles en fotos)
 :cliente : - ->   (Consultar fotos)
 :Controlador_de_fotos  :- ->   (Marcar un producto)
 :Controlador_de_fotos  :- ->   (Editar información fotos)
 :Vendedor  :- -> (Buscar detalles en fotos)
 :Vendedor  :- ->  (Hacer oferta)
 :Actor_comun :- ->  (Ver ofertas)
 :Actor_comun : <|- - :cliente :
  :Actor_comun: <|- - :Gestor :
 :Gestor :- -> (Emitir factura)
  :Gestor :- -> (Bloquear ofertas)
   :Gestor :- -> (Editar facturas)
   :Gestor :- -|> :Administrador :
 :Administrador : - -> (Editar usuarios)
:Administrador : - ->  (Crear usuarios)
 :Software_facturación :- -> (Emitir factura)
 :Gestor_correo : - ->  (Enviar correo)
 (Denunciar foto)- -|>   (Marcar un producto)
 (Denunciar foto)- -> (Visualizar fotos)#line.dashed;text:black : <<Extend>>
 (Denunciar foto)- ->  (Introducir explicación)#line.dashed;text:black : <<Include>>
 (Buscar detalles en fotos) - ->   (Verificar información de entrada)#line.dashed;text:black : <<Include>>
 (Editar elemento) - -|> (Editar usuarios)
 (Editar elemento) - -|> (Editar facturas) 
 (Crear usuarios) - ->(Enviar correo)#line.dashed;text:black :  <<Include>>
 (Hacer oferta) <- -(Reducir precio productos)#line.dashed;text:black : <<Extend>>
(Visualizar fotos)
@enduml

PlantUML version 1.2022.7(Mon Aug 22 19:01:30 CEST 2022)
(GPL source distribution)
Java Runtime: Java(TM) SE Runtime Environment
JVM: Java HotSpot(TM) 64-Bit Server VM
Default Encoding: Cp1252
Language: es
Country: ES
--></g></svg>