<?xml version="1.0" encoding="UTF-8" standalone="no"?><svg xmlns="http://www.w3.org/2000/svg" xmlns:xlink="http://www.w3.org/1999/xlink" contentStyleType="text/css" height="459px" preserveAspectRatio="none" style="width:1407px;height:459px;background:#FFFFFF;" version="1.1" viewBox="0 0 1407 459" width="1407px" zoomAndPan="magnify"><defs/><g><!--MD5=[5d9c7ad096abb1f9498e71bc4f4541e5]
entity al--><g id="elem_al"><ellipse cx="873" cy="140" fill="#F1F1F1" rx="8" ry="8" style="stroke:#181818;stroke-width:0.5;"/><path d="M873,148 L873,175 M860,156 L886,156 M873,175 L860,190 M873,175 L886,190 " fill="none" style="stroke:#181818;stroke-width:0.5;"/><text fill="#000000" font-family="sans-serif" font-size="14" lengthAdjust="spacing" textLength="47" x="849.5" y="206.0332">Alumno</text></g><g id="elem_RA"><ellipse cx="1023.1965" cy="170.7393" fill="#F1F1F1" rx="91.6965" ry="20.7393" style="stroke:#181818;stroke-width:0.5;"/><text fill="#000000" font-family="sans-serif" font-size="14" lengthAdjust="spacing" textLength="142" x="952.1965" y="174.4678">Rellenar automatrícula</text></g><g id="elem_PM"><ellipse cx="680.1111" cy="309.7222" fill="#F1F1F1" rx="74.1111" ry="17.2222" style="stroke:#181818;stroke-width:0.5;"/><text fill="#000000" font-family="sans-serif" font-size="14" lengthAdjust="spacing" textLength="99" x="627.6111" y="314.2388">Pagar matrícula</text></g><g id="elem_EA"><ellipse cx="710.7647" cy="170.5979" fill="#F1F1F1" rx="102.7647" ry="56.5979" style="stroke:#181818;stroke-width:0.5;"/><text fill="#000000" font-family="sans-serif" font-size="14" lengthAdjust="spacing" textLength="114" x="648.7647" y="143.9124">Elegir asignaturas</text><line style="stroke:#181818;stroke-width:1.0;" x1="618.3679" x2="803.1615" y1="146.9885" y2="146.9885"/><text fill="#000000" font-family="sans-serif" font-size="14" lengthAdjust="spacing" textLength="134" x="638.7647" y="165.5217">&lt;&lt;extension points&gt;&gt;</text><text fill="#000000" font-family="sans-serif" font-size="14" lengthAdjust="spacing" textLength="4" x="703.7647" y="183.1311"> </text><text fill="#000000" font-family="sans-serif" font-size="14" lengthAdjust="spacing" textLength="132" x="639.7647" y="200.7405">Elegir grupo docente</text></g><g id="elem_EB"><ellipse cx="872.7537" cy="309.2507" fill="#F1F1F1" rx="66.7537" ry="15.7507" style="stroke:#181818;stroke-width:0.5;"/><text fill="#000000" font-family="sans-serif" font-size="14" lengthAdjust="spacing" textLength="78" x="830.7537" y="313.7673">Elegir becas</text></g><g id="elem_FA"><ellipse cx="1071.1965" cy="309.7393" fill="#F1F1F1" rx="91.6965" ry="20.7393" style="stroke:#181818;stroke-width:0.5;"/><text fill="#000000" font-family="sans-serif" font-size="14" lengthAdjust="spacing" textLength="142" x="1000.1965" y="313.4678">Finalizar automatrícula</text></g><g id="elem_RP"><ellipse cx="872.7928" cy="28.8586" fill="#F1F1F1" rx="102.2928" ry="22.8586" style="stroke:#181818;stroke-width:0.5;"/><text fill="#000000" font-family="sans-serif" font-size="14" lengthAdjust="spacing" textLength="166" x="789.7928" y="32.5871">Rellenar datos personales</text></g><g id="elem_ED"><ellipse cx="400.242" cy="170.3277" fill="#F1F1F1" rx="111.742" ry="57.3277" style="stroke:#181818;stroke-width:0.5;"/><text fill="#000000" font-family="sans-serif" font-size="14" lengthAdjust="spacing" textLength="132" x="330.992" y="143.6421">Elegir grupo docente</text><line style="stroke:#181818;stroke-width:1.0;" x1="299.416" x2="501.0679" y1="146.7183" y2="146.7183"/><text fill="#000000" font-family="sans-serif" font-size="14" lengthAdjust="spacing" textLength="134" x="329.992" y="165.2515">&lt;&lt;extension points&gt;&gt;</text><text fill="#000000" font-family="sans-serif" font-size="14" lengthAdjust="spacing" textLength="4" x="394.992" y="182.8609"> </text><text fill="#000000" font-family="sans-serif" font-size="14" lengthAdjust="spacing" textLength="145" x="324.492" y="200.4703">Elegir grupo de trabajo</text></g><g id="elem_Elegir plan de pago"><ellipse cx="467.0873" cy="431.1175" fill="#F1F1F1" rx="83.5873" ry="19.1175" style="stroke:#181818;stroke-width:0.5;"/><text fill="#000000" font-family="sans-serif" font-size="14" lengthAdjust="spacing" textLength="123" x="405.5873" y="434.846">Elegir plan de pago</text></g><g id="elem_Añadir cuenta bancaria"><ellipse cx="679.8753" cy="431.1751" fill="#F1F1F1" rx="93.8753" ry="21.1751" style="stroke:#181818;stroke-width:0.5;"/><text fill="#000000" font-family="sans-serif" font-size="14" lengthAdjust="spacing" textLength="147" x="606.3753" y="434.9036">Añadir cuenta bancaria</text></g><g id="elem_Iniciar sesión aula virtual"><ellipse cx="1303.8945" cy="170.3789" fill="#F1F1F1" rx="97.3945" ry="21.8789" style="stroke:#181818;stroke-width:0.5;"/><text fill="#000000" font-family="sans-serif" font-size="14" lengthAdjust="spacing" textLength="155" x="1226.3945" y="174.1074">Iniciar sesión aula virtual</text></g><g id="elem_Rellenar todos los campos"><ellipse cx="1075.2412" cy="430.9482" fill="#F1F1F1" rx="102.7412" ry="22.9482" style="stroke:#181818;stroke-width:0.5;"/><text fill="#000000" font-family="sans-serif" font-size="14" lengthAdjust="spacing" textLength="167" x="991.7412" y="434.6768">Rellenar todos los campos</text></g><g id="elem_Tener beca"><ellipse cx="872.8631" cy="431.109" fill="#F1F1F1" rx="63.8631" ry="15.609" style="stroke:#181818;stroke-width:0.5;"/><text fill="#000000" font-family="sans-serif" font-size="14" lengthAdjust="spacing" textLength="73" x="833.3631" y="435.6256">Tener beca</text></g><g id="elem_Elegir grupo de trabajo"><ellipse cx="99.0017" cy="170.5003" fill="#F1F1F1" rx="93.0017" ry="21.0003" style="stroke:#181818;stroke-width:0.5;"/><text fill="#000000" font-family="sans-serif" font-size="14" lengthAdjust="spacing" textLength="145" x="26.5017" y="174.2289">Elegir grupo de trabajo</text></g><!--MD5=[7106b166f6d891d466672d0b520ae4a5]
link PM to Elegir plan de pago--><g id="link_PM_Elegir plan de pago"><path d="M653.45,325.39 C615.04,346.94 543.92,386.84 501.49,410.65 " fill="none" id="PM-to-Elegir plan de pago" style="stroke:#181818;stroke-width:1.0;stroke-dasharray:7.0,7.0;"/><polygon fill="#181818" points="496.97,413.18,506.7765,412.2677,501.3313,410.7348,502.8642,405.2896,496.97,413.18" style="stroke:#181818;stroke-width:1.0;"/><text fill="#000000" font-family="sans-serif" font-size="13" lengthAdjust="spacing" textLength="55" x="588" y="374.4951">«include»</text></g><!--MD5=[4d0eb39d7ae5ee39390b709811d3b4ce]
link PM to Añadir cuenta bancaria--><g id="link_PM_Añadir cuenta bancaria"><path d="M680,326.62 C680,346.64 680,381.02 680,404.6 " fill="none" id="PM-to-Añadir cuenta bancaria" style="stroke:#181818;stroke-width:1.0;stroke-dasharray:7.0,7.0;"/><polygon fill="#181818" points="680,409.76,684,400.76,680,404.76,676,400.76,680,409.76" style="stroke:#181818;stroke-width:1.0;"/><text fill="#000000" font-family="sans-serif" font-size="13" lengthAdjust="spacing" textLength="55" x="681" y="374.4951">«include»</text></g><!--MD5=[000c06f6a334867c48d6377400c1be44]
link RA to Iniciar sesión aula virtual--><g id="link_RA_Iniciar sesión aula virtual"><path d="M1114.62,170.5 C1142.21,170.5 1172.68,170.5 1200.96,170.5 " fill="none" id="RA-to-Iniciar sesión aula virtual" style="stroke:#181818;stroke-width:1.0;stroke-dasharray:7.0,7.0;"/><polygon fill="#181818" points="1206.21,170.5,1197.21,166.5,1201.21,170.5,1197.21,174.5,1206.21,170.5" style="stroke:#181818;stroke-width:1.0;"/><text fill="#000000" font-family="sans-serif" font-size="13" lengthAdjust="spacing" textLength="55" x="1133" y="163.9951">«include»</text></g><!--MD5=[5a05969ae1633b3c2b4001360519d7a9]
link FA to Rellenar todos los campos--><g id="link_FA_Rellenar todos los campos"><path d="M1071.66,330.23 C1072.32,349.99 1073.35,380.56 1074.08,402.66 " fill="none" id="FA-to-Rellenar todos los campos" style="stroke:#181818;stroke-width:1.0;stroke-dasharray:7.0,7.0;"/><polygon fill="#181818" points="1074.26,407.8,1077.9493,398.6682,1074.0887,402.8029,1069.954,398.9423,1074.26,407.8" style="stroke:#181818;stroke-width:1.0;"/><text fill="#000000" font-family="sans-serif" font-size="13" lengthAdjust="spacing" textLength="55" x="1075" y="374.4951">«include»</text></g><!--MD5=[8854570f62c5e9ab9a66550be221d4a3]
link EB to Tener beca--><g id="link_EB_Tener beca"><path d="M873,325.63 C873,347.12 873,386.49 873,410.25 " fill="none" id="EB-to-Tener beca" style="stroke:#181818;stroke-width:1.0;stroke-dasharray:7.0,7.0;"/><polygon fill="#181818" points="873,415.36,877,406.36,873,410.36,869,406.36,873,415.36" style="stroke:#181818;stroke-width:1.0;"/><text fill="#000000" font-family="sans-serif" font-size="13" lengthAdjust="spacing" textLength="55" x="874" y="374.4951">«include»</text></g><!--MD5=[aae2113fb528b219ac90598f5e56453b]
link ED to EA--><g id="link_ED_EA"><path d="M511.84,170.5 C541.47,170.5 573.4,170.5 602.84,170.5 " fill="none" id="ED-to-EA" style="stroke:#181818;stroke-width:1.0;stroke-dasharray:7.0,7.0;"/><polygon fill="#181818" points="607.92,170.5,598.92,166.5,602.92,170.5,598.92,174.5,607.92,170.5" style="stroke:#181818;stroke-width:1.0;"/><text fill="#000000" font-family="sans-serif" font-size="13" lengthAdjust="spacing" textLength="60" x="529.75" y="163.9951">«extends»</text></g><!--MD5=[acd2efcd3a9ade8aa05329818d7db42d]
link Elegir grupo de trabajo to ED--><g id="link_Elegir grupo de trabajo_ED"><path d="M192.18,170.5 C220.98,170.5 253.09,170.5 283.28,170.5 " fill="none" id="Elegir grupo de trabajo-to-ED" style="stroke:#181818;stroke-width:1.0;stroke-dasharray:7.0,7.0;"/><polygon fill="#181818" points="288.5,170.5,279.5,166.5,283.5,170.5,279.5,174.5,288.5,170.5" style="stroke:#181818;stroke-width:1.0;"/><text fill="#000000" font-family="sans-serif" font-size="13" lengthAdjust="spacing" textLength="60" x="210.25" y="163.9951">«extends»</text></g><!--MD5=[6df56f357c2469a60cb7bd85519a5b68]
link EA to al--><g id="link_EA_al"><path d="M814.15,170.5 C825.8,170.5 837.44,170.5 849.09,170.5 " fill="none" id="EA-al" style="stroke:#181818;stroke-width:1.0;"/></g><!--MD5=[fcc0904f3214572466bc82f6eec7e0c0]
link al to EB--><g id="link_al_EB"><path d="M873,209.66 C873,237.37 873,273.38 873,293.4 " fill="none" id="al-EB" style="stroke:#181818;stroke-width:1.0;"/></g><!--MD5=[f3bf909dc9b4bc805afe0fd556eb3ca9]
link al to FA--><g id="link_al_FA"><path d="M896.5,209.19 C901.74,215.95 907.65,222.56 914,228 C947.03,256.3 991.72,277.97 1024.98,291.66 " fill="none" id="al-FA" style="stroke:#181818;stroke-width:1.0;"/></g><!--MD5=[6132110b94e7d1b3e7e13f5aa6a3e40a]
link al to RA--><g id="link_al_RA"><path d="M896.73,170.5 C908.24,170.5 919.75,170.5 931.26,170.5 " fill="none" id="al-RA" style="stroke:#181818;stroke-width:1.0;"/></g><!--MD5=[a0a677a23cd8de13b0261987f3ef2968]
link RP to al--><g id="link_RP_al"><path d="M873,52.1 C873,73.39 873,106 873,131.46 " fill="none" id="RP-al" style="stroke:#181818;stroke-width:1.0;"/></g><!--MD5=[26fdefd3dc1c23ebcb030d2ab595862f]
link al to PM--><g id="link_al_PM"><path d="M849.43,208.21 C843.91,215.28 837.67,222.26 831,228 C796.32,257.84 748.72,280.91 716.3,294.56 " fill="none" id="al-PM" style="stroke:#181818;stroke-width:1.0;"/></g><!--MD5=[5feba7a17fc459423e4be2ef4a8158aa]
@startuml

actor Alumno as al
usecase RA as "Rellenar automatrícula"
usecase PM as "Pagar matrícula"
usecase EA as "Elegir asignaturas
- - - -
<<extension points>>

Elegir grupo docente"
usecase EB as "Elegir becas"
usecase FA as "Finalizar automatrícula"
usecase RP as "Rellenar datos personales"
usecase ED as "Elegir grupo docente
- - - -
<<extension points>>

Elegir grupo de trabajo"
PM ..> (Elegir plan de pago)#line.dashed;text:black : <<include>>
PM ..> (Añadir cuenta bancaria)#line.dashed;text:black : <<include>>
RA .right.> (Iniciar sesión aula virtual)#line.dashed;text:black : <<include>>
FA ..> (Rellenar todos los campos)#line.dashed;text:black : <<include>>
EB ..> (Tener beca)#line.dashed;text:black : <<include>>
EA <.left. ED#line.dashed;text:black : <<extends>>
ED <.left. (Elegir grupo de trabajo)#line.dashed;text:black : <<extends>>
al -left- EA
al - - EB
al - - FA
al -right- RA
al -up- RP
al - - PM
@enduml

PlantUML version 1.2022.7(Mon Aug 22 19:01:30 CEST 2022)
(GPL source distribution)
Java Runtime: Java(TM) SE Runtime Environment
JVM: Java HotSpot(TM) 64-Bit Server VM
Default Encoding: Cp1252
Language: es
Country: ES
--></g></svg>