<?xml version="1.0" encoding="UTF-8" standalone="no"?><svg xmlns="http://www.w3.org/2000/svg" xmlns:xlink="http://www.w3.org/1999/xlink" contentStyleType="text/css" height="473px" preserveAspectRatio="none" style="width:1837px;height:473px;background:#FFFFFF;" version="1.1" viewBox="0 0 1837 473" width="1837px" zoomAndPan="magnify"><defs/><g><!--MD5=[953543167c6874d2f2ca47c5aea302dc]
entity comp--><g id="elem_comp"><ellipse cx="724.5" cy="151" fill="#F1F1F1" rx="8" ry="8" style="stroke:#181818;stroke-width:0.5;"/><path d="M724.5,159 L724.5,186 M711.5,167 L737.5,167 M724.5,186 L711.5,201 M724.5,186 L737.5,201 " fill="none" style="stroke:#181818;stroke-width:0.5;"/><text fill="#000000" font-family="sans-serif" font-size="14" lengthAdjust="spacing" textLength="77" x="686" y="215.4951">Comprador</text></g><!--MD5=[b16dc788134dfa2c3ed275c26782547c]
entity vend--><g id="elem_vend"><ellipse cx="837.5" cy="151" fill="#F1F1F1" rx="8" ry="8" style="stroke:#181818;stroke-width:0.5;"/><path d="M837.5,159 L837.5,186 M824.5,167 L850.5,167 M837.5,186 L824.5,201 M837.5,186 L850.5,201 " fill="none" style="stroke:#181818;stroke-width:0.5;"/><text fill="#000000" font-family="sans-serif" font-size="14" lengthAdjust="spacing" textLength="68" x="803.5" y="215.4951">Vendedor</text></g><!--MD5=[4e17860bbeb46249bdbfa4c5755ac524]
entity prov--><g id="elem_prov"><ellipse cx="1135.5" cy="151" fill="#F1F1F1" rx="8" ry="8" style="stroke:#181818;stroke-width:0.5;"/><path d="M1135.5,159 L1135.5,186 M1122.5,167 L1148.5,167 M1135.5,186 L1122.5,201 M1135.5,186 L1148.5,201 " fill="none" style="stroke:#181818;stroke-width:0.5;"/><text fill="#000000" font-family="sans-serif" font-size="14" lengthAdjust="spacing" textLength="71" x="1100" y="215.4951">Proveedor</text></g><!--MD5=[79a439086b036a57b90a01d7b2f8bbd1]
entity admin--><g id="elem_admin"><ellipse cx="1452.5" cy="151" fill="#F1F1F1" rx="8" ry="8" style="stroke:#181818;stroke-width:0.5;"/><path d="M1452.5,159 L1452.5,186 M1439.5,167 L1465.5,167 M1452.5,186 L1439.5,201 M1452.5,186 L1465.5,201 " fill="none" style="stroke:#181818;stroke-width:0.5;"/><text fill="#000000" font-family="sans-serif" font-size="14" lengthAdjust="spacing" textLength="95" x="1405" y="215.4951">Adminsitrador</text></g><!--MD5=[da60f4d4a7f3679912288e7326b484d2]
entity aa1--><g id="elem_aa1"><ellipse cx="1059.5" cy="14" fill="#F1F1F1" rx="8" ry="8" style="stroke:#181818;stroke-width:0.5;"/><path d="M1059.5,22 L1059.5,49 M1046.5,30 L1072.5,30 M1059.5,49 L1046.5,64 M1059.5,49 L1072.5,64 " fill="none" style="stroke:#181818;stroke-width:0.5;"/><text fill="#000000" font-family="sans-serif" font-size="14" lengthAdjust="spacing" textLength="70" x="1024.5" y="78.4951">ActorAux1</text></g><!--MD5=[7555764750ccddba296ccd844a18e7dc]
entity aa2--><g id="elem_aa2"><ellipse cx="724.5" cy="14" fill="#F1F1F1" rx="8" ry="8" style="stroke:#181818;stroke-width:0.5;"/><path d="M724.5,22 L724.5,49 M711.5,30 L737.5,30 M724.5,49 L711.5,64 M724.5,49 L737.5,64 " fill="none" style="stroke:#181818;stroke-width:0.5;"/><text fill="#000000" font-family="sans-serif" font-size="14" lengthAdjust="spacing" textLength="70" x="689.5" y="78.4951">ActorAux2</text></g><g id="elem_Consultar precio"><ellipse cx="1683.2532" cy="180.4506" fill="#F1F1F1" rx="77.7532" ry="17.9506" style="stroke:#181818;stroke-width:0.5;"/><text fill="#000000" font-family="sans-serif" font-size="14" lengthAdjust="spacing" textLength="113" x="1624.1994" y="184.0809">Consultar precio</text></g><g id="elem_Consultar oferta"><ellipse cx="985.5612" cy="180.7122" fill="#F1F1F1" rx="76.5612" ry="17.7122" style="stroke:#181818;stroke-width:0.5;"/><text fill="#000000" font-family="sans-serif" font-size="14" lengthAdjust="spacing" textLength="110" x="927.5612" y="184.4598">Consultar oferta</text></g><g id="elem_Buscar producto"><ellipse cx="1752.5591" cy="320.6118" fill="#F1F1F1" rx="78.5591" ry="18.1118" style="stroke:#181818;stroke-width:0.5;"/><text fill="#000000" font-family="sans-serif" font-size="14" lengthAdjust="spacing" textLength="115" x="1692.8328" y="324.1525">Buscar producto</text></g><g id="elem_Verificar disponibilidad"><ellipse cx="931.5638" cy="320.3128" fill="#F1F1F1" rx="94.5638" ry="21.3128" style="stroke:#181818;stroke-width:0.5;"/><text fill="#000000" font-family="sans-serif" font-size="14" lengthAdjust="spacing" textLength="152" x="855.5638" y="323.1594">Verificar disponibilidad</text></g><g id="elem_Realizar venta"><ellipse cx="341.6781" cy="180.6356" fill="#F1F1F1" rx="71.1781" ry="16.6356" style="stroke:#181818;stroke-width:0.5;"/><text fill="#000000" font-family="sans-serif" font-size="14" lengthAdjust="spacing" textLength="96" x="290.6781" y="184.3832">Realizar venta</text></g><g id="elem_Finalizar compra"><ellipse cx="724.4563" cy="320.2913" fill="#F1F1F1" rx="76.9563" ry="17.7913" style="stroke:#181818;stroke-width:0.5;"/><text fill="#000000" font-family="sans-serif" font-size="14" lengthAdjust="spacing" textLength="111" x="666.0675" y="324.0101">Finalizar compra</text></g><g id="elem_Agregar producto"><ellipse cx="531.5271" cy="320.6054" fill="#F1F1F1" rx="81.0271" ry="18.6054" style="stroke:#181818;stroke-width:0.5;"/><text fill="#000000" font-family="sans-serif" font-size="14" lengthAdjust="spacing" textLength="121" x="469.7415" y="323.8718">Agregar producto</text></g><g id="elem_Marcar como bloqueado"><ellipse cx="531.3371" cy="445.1674" fill="#F1F1F1" rx="101.3371" ry="22.6674" style="stroke:#181818;stroke-width:0.5;"/><text fill="#000000" font-family="sans-serif" font-size="14" lengthAdjust="spacing" textLength="167" x="447.8371" y="448.0141">Marcar como bloqueado</text></g><g id="elem_Llegar acuerdo"><ellipse cx="341.4504" cy="320.5901" fill="#F1F1F1" rx="73.4504" ry="17.0901" style="stroke:#181818;stroke-width:0.5;"/><text fill="#000000" font-family="sans-serif" font-size="14" lengthAdjust="spacing" textLength="102" x="287.4504" y="324.3376">Llegar acuerdo</text></g><g id="elem_Consultar historico de venta"><ellipse cx="119.3004" cy="320.5601" fill="#F1F1F1" rx="113.3004" ry="25.0601" style="stroke:#181818;stroke-width:0.5;"/><text fill="#000000" font-family="sans-serif" font-size="14" lengthAdjust="spacing" textLength="193" x="22.8004" y="323.4068">Consultar historico de venta</text></g><g id="elem_Avisar nuevos producto"><ellipse cx="1343.5673" cy="320.7135" fill="#F1F1F1" rx="99.0673" ry="22.2135" style="stroke:#181818;stroke-width:0.5;"/><text fill="#000000" font-family="sans-serif" font-size="14" lengthAdjust="spacing" textLength="162" x="1262.5673" y="323.5601">Avisar nuevos producto</text></g><g id="elem_Avisar fin oferta"><ellipse cx="1135.7198" cy="320.744" fill="#F1F1F1" rx="74.2198" ry="17.244" style="stroke:#181818;stroke-width:0.5;"/><text fill="#000000" font-family="sans-serif" font-size="14" lengthAdjust="spacing" textLength="104" x="1080.7198" y="324.4915">Avisar fin oferta</text></g><g id="elem_Incorporacion oferta"><ellipse cx="1393.3518" cy="445.0704" fill="#F1F1F1" rx="88.3518" ry="20.0704" style="stroke:#181818;stroke-width:0.5;"/><text fill="#000000" font-family="sans-serif" font-size="14" lengthAdjust="spacing" textLength="138" x="1324.3518" y="447.917">Incorporacion oferta</text></g><g id="elem_Eliminar oferta"><ellipse cx="998.5529" cy="445.2106" fill="#F1F1F1" rx="71.5529" ry="16.7106" style="stroke:#181818;stroke-width:0.5;"/><text fill="#000000" font-family="sans-serif" font-size="14" lengthAdjust="spacing" textLength="97" x="947.0529" y="448.9581">Eliminar oferta</text></g><g id="elem_Enviar notificacion"><ellipse cx="1187.3658" cy="444.7732" fill="#F1F1F1" rx="81.8658" ry="18.7732" style="stroke:#181818;stroke-width:0.5;"/><text fill="#000000" font-family="sans-serif" font-size="14" lengthAdjust="spacing" textLength="123" x="1124.8805" y="447.9463">Enviar notificacion</text></g><g id="elem_Eliminar producto"><ellipse cx="1558.6107" cy="320.5221" fill="#F1F1F1" rx="80.6107" ry="18.5221" style="stroke:#181818;stroke-width:0.5;"/><text fill="#000000" font-family="sans-serif" font-size="14" lengthAdjust="spacing" textLength="120" x="1497.1726" y="323.8348">Eliminar producto</text></g><!--MD5=[7bce3d2ff4516af70fe6df28d473e6ee]
link aa1 to Consultar precio--><g id="link_aa1_Consultar precio"><path d="M1094.57,51.9 C1171.3,68.11 1359.81,108.06 1517.5,142.5 C1553.1,150.28 1592.95,159.15 1624.68,166.26 " fill="none" id="aa1-to-Consultar precio" style="stroke:#181818;stroke-width:1.0;"/><polygon fill="#181818" points="1629.7,167.39,1621.7857,161.528,1624.8197,166.3023,1620.0454,169.3364,1629.7,167.39" style="stroke:#181818;stroke-width:1.0;"/></g><!--MD5=[b74201ba8e42dcb131cfa95442d5620d]
link aa1 to Consultar oferta--><g id="link_aa1_Consultar oferta"><path d="M1039.08,81.75 C1025.56,106.42 1008.31,137.88 997.09,158.35 " fill="none" id="aa1-to-Consultar oferta" style="stroke:#181818;stroke-width:1.0;"/><polygon fill="#181818" points="994.65,162.8,1002.4944,156.8447,997.0612,158.4198,995.4861,152.9867,994.65,162.8" style="stroke:#181818;stroke-width:1.0;"/></g><!--MD5=[b86d104a9039f68167ce895ca4d6bc2b]
link Consultar precio to Buscar producto--><g id="link_Consultar precio_Buscar producto"><path d="M1691.96,198.42 C1704.48,223.46 1727.93,270.37 1741.68,297.87 " fill="none" id="Consultar precio-to-Buscar producto" style="stroke:#181818;stroke-width:1.0;"/><polygon fill="#181818" points="1743.97,302.44,1743.5354,292.6007,1741.7397,297.965,1736.3754,296.1693,1743.97,302.44" style="stroke:#181818;stroke-width:1.0;"/></g><!--MD5=[45b51a3a72dd967ffecbf5cd60306550]
link Consultar oferta to Verificar disponibilidad--><g id="link_Consultar oferta_Verificar disponibilidad"><path d="M978.99,198.15 C969.65,222 952.39,266.11 941.45,294.06 " fill="none" id="Consultar oferta-to-Verificar disponibilidad" style="stroke:#181818;stroke-width:1.0;"/><polygon fill="#181818" points="939.62,298.75,946.6326,291.8345,941.4474,294.0959,939.186,288.9107,939.62,298.75" style="stroke:#181818;stroke-width:1.0;"/></g><!--MD5=[2650af973a09f574a81ba143018a8ec9]
link aa2 to Realizar venta--><g id="link_aa2_Realizar venta"><path d="M689.5,56.84 C618.93,81.71 459.87,137.78 383.7,164.62 " fill="none" id="aa2-to-Realizar venta" style="stroke:#181818;stroke-width:1.0;"/><polygon fill="#181818" points="378.81,166.35,388.6272,167.139,383.5271,164.6919,385.9742,159.5917,378.81,166.35" style="stroke:#181818;stroke-width:1.0;"/></g><!--MD5=[fd5c397d1dbd9e4929ccd3408575af2d]
link comp to Finalizar compra--><g id="link_comp_Finalizar compra"><path d="M724.5,218.84 C724.5,243.86 724.5,275.97 724.5,297.11 " fill="none" id="comp-to-Finalizar compra" style="stroke:#181818;stroke-width:1.0;"/><polygon fill="#181818" points="724.5,302.24,728.5,293.24,724.5,297.24,720.5,293.24,724.5,302.24" style="stroke:#181818;stroke-width:1.0;"/></g><!--MD5=[3d0af3acf8a53bd2e594f3a10cde76bc]
link comp to Agregar producto--><g id="link_comp_Agregar producto"><path d="M685.91,209.09 C648.53,235.82 592.77,275.69 559.48,299.49 " fill="none" id="comp-to-Agregar producto" style="stroke:#181818;stroke-width:1.0;"/><polygon fill="#181818" points="555.14,302.6,564.7879,300.6206,559.2077,299.6925,560.1358,294.1123,555.14,302.6" style="stroke:#181818;stroke-width:1.0;"/></g><!--MD5=[c2f1b6976e5b1a02ed51f0e196852a6f]
link Agregar producto to Marcar como bloqueado--><g id="link_Agregar producto_Marcar como bloqueado"><path d="M531.5,339.05 C531.5,359.47 531.5,393.41 531.5,417.15 " fill="none" id="Agregar producto-to-Marcar como bloqueado" style="stroke:#181818;stroke-width:1.0;stroke-dasharray:7.0,7.0;"/><polygon fill="#181818" points="531.5,422.35,535.5,413.35,531.5,417.35,527.5,413.35,531.5,422.35" style="stroke:#181818;stroke-width:1.0;"/><text fill="#000000" font-family="sans-serif" font-size="13" lengthAdjust="spacing" textLength="61" x="532.5" y="388.5669">«include»</text></g><!--MD5=[7ae7a4f5b54ec57c0ffe4557684577e3]
link Realizar venta to Llegar acuerdo--><g id="link_Realizar venta_Llegar acuerdo"><path d="M341.5,197.06 C341.5,221.78 341.5,270.06 341.5,298.04 " fill="none" id="Realizar venta-to-Llegar acuerdo" style="stroke:#181818;stroke-width:1.0;"/><polygon fill="#181818" points="341.5,303.36,345.5,294.36,341.5,298.36,337.5,294.36,341.5,303.36" style="stroke:#181818;stroke-width:1.0;"/></g><!--MD5=[07114c1e61bc139fe33b7b281543d69e]
reverse link Realizar venta to Consultar historico de venta--><g id="link_Realizar venta_Consultar historico de venta"><path d="M313.04,199.19 C273.08,224.03 200.32,269.26 156.3,296.63 " fill="none" id="Realizar venta-backto-Consultar historico de venta" style="stroke:#181818;stroke-width:1.0;stroke-dasharray:7.0,7.0;"/><polygon fill="#181818" points="317.74,196.27,307.9859,197.6332,313.496,198.9136,312.2157,204.4236,317.74,196.27" style="stroke:#181818;stroke-width:1.0;"/><text fill="#000000" font-family="sans-serif" font-size="13" lengthAdjust="spacing" textLength="61" x="231.5" y="261.5669">«include»</text></g><!--MD5=[6b490e8b820a0041c722a01b9ef58d57]
link prov to Avisar nuevos producto--><g id="link_prov_Avisar nuevos producto"><path d="M1171.26,205.22 C1209.76,230.77 1270.62,271.15 1308.74,296.44 " fill="none" id="prov-to-Avisar nuevos producto" style="stroke:#181818;stroke-width:1.0;"/><polygon fill="#181818" points="1313.27,299.44,1307.9674,291.1404,1309.0988,296.683,1303.5562,297.8144,1313.27,299.44" style="stroke:#181818;stroke-width:1.0;"/></g><!--MD5=[dded3a579697b311e6bf26d891d650b2]
link prov to Avisar fin oferta--><g id="link_prov_Avisar fin oferta"><path d="M1135.5,218.84 C1135.5,244.31 1135.5,277.11 1135.5,298.22 " fill="none" id="prov-to-Avisar fin oferta" style="stroke:#181818;stroke-width:1.0;"/><polygon fill="#181818" points="1135.5,303.33,1139.5,294.33,1135.5,298.33,1131.5,294.33,1135.5,303.33" style="stroke:#181818;stroke-width:1.0;"/></g><!--MD5=[0f1dceb3e05ad22a40151ab824feec44]
reverse link Avisar nuevos producto to Incorporacion oferta--><g id="link_Avisar nuevos producto_Incorporacion oferta"><path d="M1354.05,347.34 C1363.5,370.5 1377.16,403.97 1385.67,424.83 " fill="none" id="Avisar nuevos producto-backto-Incorporacion oferta" style="stroke:#181818;stroke-width:1.0;stroke-dasharray:7.0,7.0;"/><polygon fill="#181818" points="1352.1,342.56,1351.7807,352.4037,1353.9815,347.1925,1359.1927,349.3933,1352.1,342.56" style="stroke:#181818;stroke-width:1.0;"/><text fill="#000000" font-family="sans-serif" font-size="13" lengthAdjust="spacing" textLength="67" x="1371.5" y="388.5669">«extends»</text></g><!--MD5=[54c8fc187d2dca118016ad25f14e4010]
link Avisar fin oferta to Eliminar oferta--><g id="link_Avisar fin oferta_Eliminar oferta"><path d="M1117.87,337.26 C1092.66,359.81 1046.39,401.18 1019.46,425.26 " fill="none" id="Avisar fin oferta-to-Eliminar oferta" style="stroke:#181818;stroke-width:1.0;stroke-dasharray:7.0,7.0;"/><polygon fill="#181818" points="1015.63,428.68,1025.0013,425.6504,1019.3528,425.3423,1019.6609,419.6938,1015.63,428.68" style="stroke:#181818;stroke-width:1.0;"/><text fill="#000000" font-family="sans-serif" font-size="13" lengthAdjust="spacing" textLength="61" x="1071.5" y="388.5669">«include»</text></g><!--MD5=[2097c9f915c9476676c8c7577e5c9770]
link Avisar nuevos producto to Enviar notificacion--><g id="link_Avisar nuevos producto_Enviar notificacion"><path d="M1317.39,342 C1288.62,364.6 1242.61,400.72 1213.78,423.37 " fill="none" id="Avisar nuevos producto-to-Enviar notificacion" style="stroke:#181818;stroke-width:1.0;"/><polygon fill="#181818" points="1209.65,426.61,1219.1931,424.175,1213.5751,423.5127,1214.2374,417.8948,1209.65,426.61" style="stroke:#181818;stroke-width:1.0;"/></g><!--MD5=[a12edcc6b8fd2f992b528a26512a16d7]
link Avisar fin oferta to Enviar notificacion--><g id="link_Avisar fin oferta_Enviar notificacion"><path d="M1142.3,337.51 C1151.38,358.92 1167.53,396.97 1177.87,421.31 " fill="none" id="Avisar fin oferta-to-Enviar notificacion" style="stroke:#181818;stroke-width:1.0;"/><polygon fill="#181818" points="1179.86,425.99,1180.0172,416.1424,1177.9025,421.3891,1172.6558,419.2744,1179.86,425.99" style="stroke:#181818;stroke-width:1.0;"/></g><!--MD5=[41f2e19c0a313eedad604e22b344b281]
link admin to Eliminar producto--><g id="link_admin_Eliminar producto"><path d="M1481.19,218.84 C1500.73,244.29 1525.9,277.06 1542.12,298.18 " fill="none" id="admin-to-Eliminar producto" style="stroke:#181818;stroke-width:1.0;"/><polygon fill="#181818" points="1545.24,302.24,1542.9414,292.6631,1542.199,298.271,1536.5911,297.5287,1545.24,302.24" style="stroke:#181818;stroke-width:1.0;"/></g><!--MD5=[ef62429c680b350a114ffa4eec9e7ebf]
reverse link aa1 to comp--><g id="link_aa1_comp"><path d="M1004.95,60.43 C948.71,77.68 859.07,107.47 785.5,142.5 C778.12,146.01 770.49,150.18 763.23,154.42 " fill="none" id="aa1-backto-comp" style="stroke:#181818;stroke-width:1.0;"/><polygon fill="none" points="1003.26,53.63,1024.43,54.55,1007.3,67.03,1003.26,53.63" style="stroke:#181818;stroke-width:1.0;"/></g><!--MD5=[b908b649bd804583445eadb9662c8b09]
reverse link aa1 to vend--><g id="link_aa1_vend"><path d="M1006.47,74.12 C973.11,93.08 929.36,118.53 891.5,142.5 C884.97,146.63 878.1,151.18 871.53,155.63 " fill="none" id="aa1-backto-vend" style="stroke:#181818;stroke-width:1.0;"/><polygon fill="none" points="1003.45,67.79,1024.31,64.04,1010.34,79.98,1003.45,67.79" style="stroke:#181818;stroke-width:1.0;"/></g><!--MD5=[79b708061045b71e0a23f1c875ccc097]
reverse link aa1 to prov--><g id="link_aa1_prov"><path d="M1090.41,99.41 C1098.55,113.86 1107.13,129.11 1114.6,142.37 " fill="none" id="aa1-backto-prov" style="stroke:#181818;stroke-width:1.0;"/><polygon fill="none" points="1084.18,102.61,1080.47,81.75,1096.38,95.74,1084.18,102.61" style="stroke:#181818;stroke-width:1.0;"/></g><!--MD5=[1da61229de50180b8a0d6853d7ab9141]
reverse link aa1 to admin--><g id="link_aa1_admin"><path d="M1113.83,63.16 C1191.09,89.7 1331.44,137.92 1404.86,163.13 " fill="none" id="aa1-backto-admin" style="stroke:#181818;stroke-width:1.0;"/><polygon fill="none" points="1111.36,69.72,1094.72,56.6,1115.91,56.48,1111.36,69.72" style="stroke:#181818;stroke-width:1.0;"/></g><!--MD5=[ff653e0494e980d2a57f3ce0b03dabac]
reverse link aa2 to comp--><g id="link_aa2_comp"><path d="M724.5,101.83 C724.5,115.55 724.5,129.84 724.5,142.37 " fill="none" id="aa2-backto-comp" style="stroke:#181818;stroke-width:1.0;"/><polygon fill="none" points="717.5,101.75,724.5,81.75,731.5,101.75,717.5,101.75" style="stroke:#181818;stroke-width:1.0;"/></g><!--MD5=[399fd9d58e330559c6ba6aca9c58a58c]
reverse link aa2 to vend--><g id="link_aa2_vend"><path d="M768.86,97.49 C781.42,112.5 794.83,128.52 806.42,142.37 " fill="none" id="aa2-backto-vend" style="stroke:#181818;stroke-width:1.0;"/><polygon fill="none" points="763.15,101.58,755.68,81.75,773.88,92.59,763.15,101.58" style="stroke:#181818;stroke-width:1.0;"/></g><!--MD5=[e1f5331d9db61b7457c2c7afef937728]
@startuml
"Comprador" as comp 
"Vendedor" as vend
"Proveedor" as prov
"Adminsitrador" as admin
"ActorAux1" as aa1
"ActorAux2" as aa2

aa1 - -> (Consultar precio)
aa1 - -> (Consultar oferta)
(Consultar precio) - -> (Buscar producto)
(Consultar oferta) - -> (Verificar disponibilidad)

aa2 - -> (Realizar venta)

comp - -> (Finalizar compra)
comp - -> (Agregar producto)
(Agregar producto)..>(Marcar como bloqueado)#line.dashed;text:black : <<include>>

(Realizar venta) - -> (Llegar acuerdo)
(Realizar venta) <..(Consultar historico de venta)#line.dashed;text:black : <<include>>

prov - -> (Avisar nuevos producto)
prov - -> (Avisar fin oferta)

(Avisar nuevos producto)<..(Incorporacion oferta)#line.dashed;text:black : <<extends>>
(Avisar fin oferta)..>(Eliminar oferta) #line.dashed;text:black : <<include>>

(Avisar nuevos producto) - -> (Enviar notificacion)
(Avisar fin oferta) - -> (Enviar notificacion)

admin - -> (Eliminar producto)

aa1 <|- - comp
aa1 <|- - vend
aa1 <|- - prov
aa1 <|- - admin

aa2 <|- - comp
aa2 <|- - vend
@enduml

PlantUML version 1.2022.7(Mon Aug 22 19:01:30 CEST 2022)
(GPL source distribution)
Java Runtime: OpenJDK Runtime Environment
JVM: OpenJDK 64-Bit Server VM
Default Encoding: UTF-8
Language: es
Country: ES
--></g></svg>