<?xml version="1.0" encoding="UTF-8" standalone="no"?><svg xmlns="http://www.w3.org/2000/svg" xmlns:xlink="http://www.w3.org/1999/xlink" contentStyleType="text/css" height="646px" preserveAspectRatio="none" style="width:1842px;height:646px;background:#FFFFFF;" version="1.1" viewBox="0 0 1842 646" width="1842px" zoomAndPan="magnify"><defs/><g><!--MD5=[96bfbbe0eb408882ca125263830eb96e]
entity cliente --><g id="elem_cliente "><ellipse cx="216.5" cy="151" fill="#F1F1F1" rx="8" ry="8" style="stroke:#181818;stroke-width:0.5;"/><path d="M216.5,159 L216.5,186 M203.5,167 L229.5,167 M216.5,186 L203.5,201 M216.5,186 L229.5,201 " fill="none" style="stroke:#181818;stroke-width:0.5;"/><text fill="#000000" font-family="sans-serif" font-size="14" lengthAdjust="spacing" textLength="46" x="191.5" y="215.4951">cliente</text></g><g id="elem_Visualizar fotos"><ellipse cx="216.712" cy="333.4424" fill="#F1F1F1" rx="82.712" ry="18.9424" style="stroke:#181818;stroke-width:0.5;"/><text fill="#000000" font-family="sans-serif" font-size="14" lengthAdjust="spacing" textLength="125" x="153.5208" y="336.5215">-extension points-</text></g><g id="elem_Consultar fotos"><ellipse cx="80.6066" cy="470.3213" fill="#F1F1F1" rx="74.6066" ry="17.3213" style="stroke:#181818;stroke-width:0.5;"/><text fill="#000000" font-family="sans-serif" font-size="14" lengthAdjust="spacing" textLength="105" x="25.1066" y="474.0689">Consultar fotos</text></g><g id="elem_Buscar detalles en fotos"><ellipse cx="291.3371" cy="470.6674" fill="#F1F1F1" rx="101.3371" ry="22.6674" style="stroke:#181818;stroke-width:0.5;"/><text fill="#000000" font-family="sans-serif" font-size="14" lengthAdjust="spacing" textLength="167" x="207.8371" y="473.5141">Buscar detalles en fotos</text></g><!--MD5=[e0c44d1b4211d01c49ee332f78400776]
entity Controlador_de_fotos  --><g id="elem_Controlador_de_fotos  "><ellipse cx="751.5" cy="151" fill="#F1F1F1" rx="8" ry="8" style="stroke:#181818;stroke-width:0.5;"/><path d="M751.5,159 L751.5,186 M738.5,167 L764.5,167 M751.5,186 L738.5,201 M751.5,186 L764.5,201 " fill="none" style="stroke:#181818;stroke-width:0.5;"/><text fill="#000000" font-family="sans-serif" font-size="14" lengthAdjust="spacing" textLength="148" x="673.5" y="215.4951">Controlador_de_fotos</text></g><g id="elem_Marcar un producto"><ellipse cx="751.5368" cy="333.3074" fill="#F1F1F1" rx="87.0368" ry="19.8074" style="stroke:#181818;stroke-width:0.5;"/><text fill="#000000" font-family="sans-serif" font-size="14" lengthAdjust="spacing" textLength="135" x="684.0368" y="336.154">Marcar un producto</text></g><g id="elem_Editar información fotos"><ellipse cx="972.5673" cy="333.7135" fill="#F1F1F1" rx="99.0673" ry="22.2135" style="stroke:#181818;stroke-width:0.5;"/><text fill="#000000" font-family="sans-serif" font-size="14" lengthAdjust="spacing" textLength="162" x="891.5673" y="336.5601">Editar información fotos</text></g><!--MD5=[f7a24e2796a58bb0f74bf7b0542a6e0c]
entity Vendedor  --><g id="elem_Vendedor  "><ellipse cx="372.5" cy="304" fill="#F1F1F1" rx="8" ry="8" style="stroke:#181818;stroke-width:0.5;"/><path d="M372.5,312 L372.5,339 M359.5,320 L385.5,320 M372.5,339 L359.5,354 M372.5,339 L385.5,354 " fill="none" style="stroke:#181818;stroke-width:0.5;"/><text fill="#000000" font-family="sans-serif" font-size="14" lengthAdjust="spacing" textLength="68" x="334.5" y="368.4951">Vendedor</text></g><g id="elem_Hacer oferta"><ellipse cx="511.3142" cy="470.2628" fill="#F1F1F1" rx="66.8142" ry="15.7628" style="stroke:#181818;stroke-width:0.5;"/><text fill="#000000" font-family="sans-serif" font-size="14" lengthAdjust="spacing" textLength="84" x="466.3142" y="474.0104">Hacer oferta</text></g><!--MD5=[db72d6d07f04b9025a8aec01b17697b8]
entity Actor_comun --><g id="elem_Actor_comun "><ellipse cx="740.5" cy="14" fill="#F1F1F1" rx="8" ry="8" style="stroke:#181818;stroke-width:0.5;"/><path d="M740.5,22 L740.5,49 M727.5,30 L753.5,30 M740.5,49 L727.5,64 M740.5,49 L753.5,64 " fill="none" style="stroke:#181818;stroke-width:0.5;"/><text fill="#000000" font-family="sans-serif" font-size="14" lengthAdjust="spacing" textLength="91" x="693" y="78.4951">Actor_comun</text></g><g id="elem_Ver ofertas"><ellipse cx="928.7248" cy="180.645" fill="#F1F1F1" rx="63.7248" ry="15.145" style="stroke:#181818;stroke-width:0.5;"/><text fill="#000000" font-family="sans-serif" font-size="14" lengthAdjust="spacing" textLength="75" x="888.2248" y="184.3925">Ver ofertas</text></g><!--MD5=[86018e77de72e037cca57d4b76786b44]
entity Actor_comun--><g id="elem_Actor_comun"><ellipse cx="1450.5" cy="14" fill="#F1F1F1" rx="8" ry="8" style="stroke:#181818;stroke-width:0.5;"/><path d="M1450.5,22 L1450.5,49 M1437.5,30 L1463.5,30 M1450.5,49 L1437.5,64 M1450.5,49 L1463.5,64 " fill="none" style="stroke:#181818;stroke-width:0.5;"/><text fill="#000000" font-family="sans-serif" font-size="14" lengthAdjust="spacing" textLength="91" x="1405" y="78.4951">Actor_comun</text></g><!--MD5=[bb7f77e9327422e617fbd178e2830dfd]
entity Gestor --><g id="elem_Gestor "><ellipse cx="1450.5" cy="151" fill="#F1F1F1" rx="8" ry="8" style="stroke:#181818;stroke-width:0.5;"/><path d="M1450.5,159 L1450.5,186 M1437.5,167 L1463.5,167 M1450.5,186 L1437.5,201 M1450.5,186 L1463.5,201 " fill="none" style="stroke:#181818;stroke-width:0.5;"/><text fill="#000000" font-family="sans-serif" font-size="14" lengthAdjust="spacing" textLength="47" x="1425" y="215.4951">Gestor</text></g><g id="elem_Emitir factura"><ellipse cx="1175.6011" cy="333.6202" fill="#F1F1F1" rx="68.6011" ry="16.1202" style="stroke:#181818;stroke-width:0.5;"/><text fill="#000000" font-family="sans-serif" font-size="14" lengthAdjust="spacing" textLength="89" x="1128.1011" y="337.3678">Emitir factura</text></g><g id="elem_Bloquear ofertas"><ellipse cx="1491.6551" cy="333.531" fill="#F1F1F1" rx="78.1551" ry="18.031" style="stroke:#181818;stroke-width:0.5;"/><text fill="#000000" font-family="sans-serif" font-size="14" lengthAdjust="spacing" textLength="114" x="1432.2659" y="337.1166">Bloquear ofertas</text></g><g id="elem_Editar facturas"><ellipse cx="1676.4293" cy="333.2859" fill="#F1F1F1" rx="71.9293" ry="16.7859" style="stroke:#181818;stroke-width:0.5;"/><text fill="#000000" font-family="sans-serif" font-size="14" lengthAdjust="spacing" textLength="98" x="1624.4293" y="337.0334">Editar facturas</text></g><!--MD5=[c029a3ec44bd2b35e16a88f63db4b598]
entity Administrador --><g id="elem_Administrador "><ellipse cx="1328.5" cy="304" fill="#F1F1F1" rx="8" ry="8" style="stroke:#181818;stroke-width:0.5;"/><path d="M1328.5,312 L1328.5,339 M1315.5,320 L1341.5,320 M1328.5,339 L1315.5,354 M1328.5,339 L1341.5,354 " fill="none" style="stroke:#181818;stroke-width:0.5;"/><text fill="#000000" font-family="sans-serif" font-size="14" lengthAdjust="spacing" textLength="95" x="1279" y="368.4951">Administrador</text></g><g id="elem_Editar usuarios"><ellipse cx="1509.4504" cy="470.5901" fill="#F1F1F1" rx="73.4504" ry="17.0901" style="stroke:#181818;stroke-width:0.5;"/><text fill="#000000" font-family="sans-serif" font-size="14" lengthAdjust="spacing" textLength="102" x="1455.4504" y="474.3376">Editar usuarios</text></g><g id="elem_Crear usuarios"><ellipse cx="1328.6868" cy="470.4374" fill="#F1F1F1" rx="72.6868" ry="16.9374" style="stroke:#181818;stroke-width:0.5;"/><text fill="#000000" font-family="sans-serif" font-size="14" lengthAdjust="spacing" textLength="100" x="1275.6868" y="474.1849">Crear usuarios</text></g><!--MD5=[af137975e134d9b442c4e2e99fd3e9c7]
entity Software_facturación --><g id="elem_Software_facturación "><ellipse cx="1175.5" cy="151" fill="#F1F1F1" rx="8" ry="8" style="stroke:#181818;stroke-width:0.5;"/><path d="M1175.5,159 L1175.5,186 M1162.5,167 L1188.5,167 M1175.5,186 L1162.5,201 M1175.5,186 L1188.5,201 " fill="none" style="stroke:#181818;stroke-width:0.5;"/><text fill="#000000" font-family="sans-serif" font-size="14" lengthAdjust="spacing" textLength="143" x="1102" y="215.4951">Software_facturación</text></g><!--MD5=[4a6c9ca25e433e642cbd6ff6d36afdc7]
entity Gestor_correo --><g id="elem_Gestor_correo "><ellipse cx="1669.5" cy="441" fill="#F1F1F1" rx="8" ry="8" style="stroke:#181818;stroke-width:0.5;"/><path d="M1669.5,449 L1669.5,476 M1656.5,457 L1682.5,457 M1669.5,476 L1656.5,491 M1669.5,476 L1682.5,491 " fill="none" style="stroke:#181818;stroke-width:0.5;"/><text fill="#000000" font-family="sans-serif" font-size="14" lengthAdjust="spacing" textLength="99" x="1618" y="505.4951">Gestor_correo</text></g><g id="elem_Enviar correo"><ellipse cx="1562.464" cy="613.1928" fill="#F1F1F1" rx="68.964" ry="16.1928" style="stroke:#181818;stroke-width:0.5;"/><text fill="#000000" font-family="sans-serif" font-size="14" lengthAdjust="spacing" textLength="90" x="1514.464" y="616.9404">Enviar correo</text></g><g id="elem_Denunciar foto"><ellipse cx="537.4504" cy="180.5901" fill="#F1F1F1" rx="73.4504" ry="17.0901" style="stroke:#181818;stroke-width:0.5;"/><text fill="#000000" font-family="sans-serif" font-size="14" lengthAdjust="spacing" textLength="102" x="483.4504" y="184.3376">Denunciar foto</text></g><g id="elem_Introducir explicación"><ellipse cx="537.4431" cy="333.6886" fill="#F1F1F1" rx="91.4431" ry="20.6886" style="stroke:#181818;stroke-width:0.5;"/><text fill="#000000" font-family="sans-serif" font-size="14" lengthAdjust="spacing" textLength="145" x="464.9431" y="336.5353">Introducir explicación</text></g><g id="elem_Verificar información de entrada"><ellipse cx="276.5326" cy="612.8065" fill="#F1F1F1" rx="124.5326" ry="27.3065" style="stroke:#181818;stroke-width:0.5;"/><text fill="#000000" font-family="sans-serif" font-size="14" lengthAdjust="spacing" textLength="217" x="168.0326" y="615.6532">Verificar información de entrada</text></g><g id="elem_Editar elemento"><ellipse cx="1760.6676" cy="180.6335" fill="#F1F1F1" rx="76.1676" ry="17.6335" style="stroke:#181818;stroke-width:0.5;"/><text fill="#000000" font-family="sans-serif" font-size="14" lengthAdjust="spacing" textLength="109" x="1703.1676" y="184.3811">Editar elemento</text></g><g id="elem_Reducir precio productos"><ellipse cx="541.4911" cy="612.8982" fill="#F1F1F1" rx="104.9911" ry="23.3982" style="stroke:#181818;stroke-width:0.5;"/><text fill="#000000" font-family="sans-serif" font-size="14" lengthAdjust="spacing" textLength="175" x="453.9911" y="615.7449">Reducir precio productos</text></g><!--MD5=[3af4fdec0567a5985d65ce3f7f056593]
link cliente  to Visualizar fotos--><g id="link_cliente _Visualizar fotos"><path d="M216.5,218.83 C216.5,247.08 216.5,285.02 216.5,309.12 " fill="none" id="cliente -to-Visualizar fotos" style="stroke:#181818;stroke-width:1.0;"/><polygon fill="#181818" points="216.5,314.34,220.5,305.34,216.5,309.34,212.5,305.34,216.5,314.34" style="stroke:#181818;stroke-width:1.0;"/></g><!--MD5=[d9588f10b8406a173918d61c6d701884]
reverse link Visualizar fotos to Consultar fotos--><g id="link_Visualizar fotos_Consultar fotos"><path d="M184.41,366.35 C156.98,393.58 118.62,431.66 97.01,453.11 " fill="none" id="Visualizar fotos-backto-Consultar fotos" style="stroke:#181818;stroke-width:1.0;"/><polygon fill="none" points="179.59,361.27,198.72,352.15,189.46,371.21,179.59,361.27" style="stroke:#181818;stroke-width:1.0;"/></g><!--MD5=[39abcce2056d11f10448a8c524cf8843]
reverse link Visualizar fotos to Buscar detalles en fotos--><g id="link_Visualizar fotos_Buscar detalles en fotos"><path d="M236.19,369.95 C249.95,394.7 267.86,426.95 279.51,447.93 " fill="none" id="Visualizar fotos-backto-Buscar detalles en fotos" style="stroke:#181818;stroke-width:1.0;"/><polygon fill="none" points="230.05,373.31,226.46,352.43,242.29,366.51,230.05,373.31" style="stroke:#181818;stroke-width:1.0;"/></g><!--MD5=[995f9f9b0e90d39abadf00f4591a8187]
link cliente  to Consultar fotos--><g id="link_cliente _Consultar fotos"><path d="M191.47,202.86 C168.36,224.01 134.93,258.5 116.5,295.5 C91.31,346.09 83.74,413.38 81.47,447.56 " fill="none" id="cliente -to-Consultar fotos" style="stroke:#181818;stroke-width:1.0;"/><polygon fill="#181818" points="81.15,452.76,85.6833,444.0165,81.4503,447.769,77.6978,443.536,81.15,452.76" style="stroke:#181818;stroke-width:1.0;"/></g><!--MD5=[7d5f22a32bc3dc255651d18c7d273c58]
link Controlador_de_fotos   to Marcar un producto--><g id="link_Controlador_de_fotos  _Marcar un producto"><path d="M751.5,218.83 C751.5,246.59 751.5,283.71 751.5,307.86 " fill="none" id="Controlador_de_fotos  -to-Marcar un producto" style="stroke:#181818;stroke-width:1.0;"/><polygon fill="#181818" points="751.5,313.1,755.5,304.1,751.5,308.1,747.5,304.1,751.5,313.1" style="stroke:#181818;stroke-width:1.0;"/></g><!--MD5=[cfcb8489c4966e4ac724ba55df5f5be3]
link Controlador_de_fotos   to Editar información fotos--><g id="link_Controlador_de_fotos  _Editar información fotos"><path d="M805.85,218.63 C847.48,247.08 903.6,285.42 938.92,309.55 " fill="none" id="Controlador_de_fotos  -to-Editar información fotos" style="stroke:#181818;stroke-width:1.0;"/><polygon fill="#181818" points="943.12,312.42,937.9562,304.0334,938.9952,309.594,933.4346,310.6331,943.12,312.42" style="stroke:#181818;stroke-width:1.0;"/></g><!--MD5=[ed76addeb4dbc60447f53398948f4c35]
link Vendedor   to Buscar detalles en fotos--><g id="link_Vendedor  _Buscar detalles en fotos"><path d="M350.15,371.75 C336.48,394.53 319.33,423.11 307.12,443.47 " fill="none" id="Vendedor  -to-Buscar detalles en fotos" style="stroke:#181818;stroke-width:1.0;"/><polygon fill="#181818" points="304.43,447.94,312.4904,442.2805,307.0025,443.6525,305.6305,438.1646,304.43,447.94" style="stroke:#181818;stroke-width:1.0;"/></g><!--MD5=[9cef04190faf558d47dafec05a983218]
link Vendedor   to Hacer oferta--><g id="link_Vendedor  _Hacer oferta"><path d="M410.85,371.75 C437.48,397.61 471.8,430.94 492.7,451.24 " fill="none" id="Vendedor  -to-Hacer oferta" style="stroke:#181818;stroke-width:1.0;"/><polygon fill="#181818" points="496.44,454.88,492.7748,445.7385,492.8548,451.3948,487.1985,451.4748,496.44,454.88" style="stroke:#181818;stroke-width:1.0;"/></g><!--MD5=[e243295b3f4ea547052cada4705f2133]
link Actor_comun  to Ver ofertas--><g id="link_Actor_comun _Ver ofertas"><path d="M788.43,78.92 C825.96,105.87 876.52,142.17 905.5,162.99 " fill="none" id="Actor_comun -to-Ver ofertas" style="stroke:#181818;stroke-width:1.0;"/><polygon fill="#181818" points="909.62,165.94,904.6298,157.449,905.5542,163.0298,899.9734,163.9542,909.62,165.94" style="stroke:#181818;stroke-width:1.0;"/></g><!--MD5=[f63f4f20f617ed55d678b465c15ec190]
reverse link Actor_comun  to cliente --><g id="link_Actor_comun _cliente "><path d="M673.17,61.85 C555.9,92.06 319.25,153.03 241.72,173 " fill="none" id="Actor_comun -backto-cliente " style="stroke:#181818;stroke-width:1.0;"/><polygon fill="none" points="671.5,55.05,692.61,56.84,674.99,68.61,671.5,55.05" style="stroke:#181818;stroke-width:1.0;"/></g><!--MD5=[bf2934a5b543b26e1b616315ffe247e1]
reverse link Actor_comun to Gestor --><g id="link_Actor_comun_Gestor "><path d="M1450.5,101.83 C1450.5,115.55 1450.5,129.84 1450.5,142.37 " fill="none" id="Actor_comun-backto-Gestor " style="stroke:#181818;stroke-width:1.0;"/><polygon fill="none" points="1443.5,101.75,1450.5,81.75,1457.5,101.75,1443.5,101.75" style="stroke:#181818;stroke-width:1.0;"/></g><!--MD5=[57c031bb91c79eddb24c7e29673522e4]
link Gestor  to Emitir factura--><g id="link_Gestor _Emitir factura"><path d="M1424.63,195.71 C1373.52,223.77 1259.86,286.18 1205.54,316.01 " fill="none" id="Gestor -to-Emitir factura" style="stroke:#181818;stroke-width:1.0;"/><polygon fill="#181818" points="1201.1,318.44,1210.9133,317.6039,1205.4802,316.0288,1207.0553,310.5956,1201.1,318.44" style="stroke:#181818;stroke-width:1.0;"/></g><!--MD5=[99c8736b7e0b18d5ca6ea94053382652]
link Gestor  to Bloquear ofertas--><g id="link_Gestor _Bloquear ofertas"><path d="M1460.63,218.83 C1468.43,247.53 1478.93,286.21 1485.46,310.24 " fill="none" id="Gestor -to-Bloquear ofertas" style="stroke:#181818;stroke-width:1.0;"/><polygon fill="#181818" points="1486.79,315.14,1488.3127,305.4096,1485.4901,310.3119,1480.5878,307.4894,1486.79,315.14" style="stroke:#181818;stroke-width:1.0;"/></g><!--MD5=[6a13192f66537e2ad5c83c894e61ae55]
link Gestor  to Editar facturas--><g id="link_Gestor _Editar facturas"><path d="M1476.43,198.82 C1519.47,227.58 1605.28,284.92 1649.21,314.27 " fill="none" id="Gestor -to-Editar facturas" style="stroke:#181818;stroke-width:1.0;"/><polygon fill="#181818" points="1653.59,317.19,1648.3203,308.8695,1649.4297,314.4165,1643.8827,315.5259,1653.59,317.19" style="stroke:#181818;stroke-width:1.0;"/></g><!--MD5=[e7c807f627d04c33537031aab3bda3f5]
link Gestor  to Administrador --><g id="link_Gestor _Administrador "><path d="M1424.92,213.15 C1409.43,232.34 1389.26,257.3 1371.38,279.43 " fill="none" id="Gestor -to-Administrador " style="stroke:#181818;stroke-width:1.0;"/><polygon fill="none" points="1376.58,284.14,1358.56,295.29,1365.69,275.34,1376.58,284.14" style="stroke:#181818;stroke-width:1.0;"/></g><!--MD5=[205d06033ae3fa357e30912561ee9644]
link Administrador  to Editar usuarios--><g id="link_Administrador _Editar usuarios"><path d="M1378.44,371.75 C1412.8,397.38 1457.01,430.35 1484.29,450.7 " fill="none" id="Administrador -to-Editar usuarios" style="stroke:#181818;stroke-width:1.0;"/><polygon fill="#181818" points="1488.52,453.85,1483.6857,445.2693,1484.508,450.866,1478.9113,451.6884,1488.52,453.85" style="stroke:#181818;stroke-width:1.0;"/></g><!--MD5=[b2761f1cf38db5e46d657ab45d82a0cb]
link Administrador  to Crear usuarios--><g id="link_Administrador _Crear usuarios"><path d="M1328.5,371.75 C1328.5,396.25 1328.5,427.46 1328.5,447.93 " fill="none" id="Administrador -to-Crear usuarios" style="stroke:#181818;stroke-width:1.0;"/><polygon fill="#181818" points="1328.5,453.15,1332.5,444.15,1328.5,448.15,1324.5,444.15,1328.5,453.15" style="stroke:#181818;stroke-width:1.0;"/></g><!--MD5=[bd04ed6fe9416c47290e0afd922f00a3]
link Software_facturación  to Emitir factura--><g id="link_Software_facturación _Emitir factura"><path d="M1175.5,218.83 C1175.5,248.38 1175.5,288.53 1175.5,312.35 " fill="none" id="Software_facturación -to-Emitir factura" style="stroke:#181818;stroke-width:1.0;"/><polygon fill="#181818" points="1175.5,317.47,1179.5,308.47,1175.5,312.47,1171.5,308.47,1175.5,317.47" style="stroke:#181818;stroke-width:1.0;"/></g><!--MD5=[69d719c194bfc0577b18122b6cf09f6e]
link Gestor_correo  to Enviar correo--><g id="link_Gestor_correo _Enviar correo"><path d="M1641.11,508.78 C1620.44,535.92 1593.32,571.53 1576.94,593.05 " fill="none" id="Gestor_correo -to-Enviar correo" style="stroke:#181818;stroke-width:1.0;"/><polygon fill="#181818" points="1573.81,597.15,1582.4507,592.4237,1576.8441,593.1758,1576.092,587.5692,1573.81,597.15" style="stroke:#181818;stroke-width:1.0;"/></g><!--MD5=[95189ed0db925899368fbceaefc92754]
link Denunciar foto to Marcar un producto--><g id="link_Denunciar foto_Marcar un producto"><path d="M559.2,196.81 C594.28,221.57 664.09,270.82 709.24,302.68 " fill="none" id="Denunciar foto-to-Marcar un producto" style="stroke:#181818;stroke-width:1.0;"/><polygon fill="none" points="713.48,297.1,725.78,314.35,705.4,308.54,713.48,297.1" style="stroke:#181818;stroke-width:1.0;"/></g><!--MD5=[227538d6200024ddabcefe7d2ab1719b]
link Denunciar foto to Visualizar fotos--><g id="link_Denunciar foto_Visualizar fotos"><path d="M506.72,195.98 C448.18,223.52 320.88,283.4 256.09,313.88 " fill="none" id="Denunciar foto-to-Visualizar fotos" style="stroke:#181818;stroke-width:1.0;stroke-dasharray:7.0,7.0;"/><polygon fill="#181818" points="251.54,316.02,261.3869,315.8251,256.068,313.8993,257.9938,308.5804,251.54,316.02" style="stroke:#181818;stroke-width:1.0;"/><text fill="#000000" font-family="sans-serif" font-size="13" lengthAdjust="spacing" textLength="60" x="388.5" y="261.5669">«Extend»</text></g><!--MD5=[cff84e882efe9bdfd494e6a282cc259a]
link Denunciar foto to Introducir explicación--><g id="link_Denunciar foto_Introducir explicación"><path d="M537.5,197.66 C537.5,223.98 537.5,276.3 537.5,307.47 " fill="none" id="Denunciar foto-to-Introducir explicación" style="stroke:#181818;stroke-width:1.0;stroke-dasharray:7.0,7.0;"/><polygon fill="#181818" points="537.5,312.65,541.5,303.65,537.5,307.65,533.5,303.65,537.5,312.65" style="stroke:#181818;stroke-width:1.0;"/><text fill="#000000" font-family="sans-serif" font-size="13" lengthAdjust="spacing" textLength="61" x="538.5" y="261.5669">«Include»</text></g><!--MD5=[7b14d1b312d1845c80df919061aa8573]
link Buscar detalles en fotos to Verificar información de entrada--><g id="link_Buscar detalles en fotos_Verificar información de entrada"><path d="M289.19,493.15 C286.71,516.38 282.74,553.54 279.9,580.12 " fill="none" id="Buscar detalles en fotos-to-Verificar información de entrada" style="stroke:#181818;stroke-width:1.0;stroke-dasharray:7.0,7.0;"/><polygon fill="#181818" points="279.35,585.29,284.2791,576.7633,279.8786,580.318,276.324,575.9175,279.35,585.29" style="stroke:#181818;stroke-width:1.0;"/><text fill="#000000" font-family="sans-serif" font-size="13" lengthAdjust="spacing" textLength="61" x="285.5" y="551.5669">«Include»</text></g><!--MD5=[5be0ee0bb8fc2729d02495d038c8640f]
link Editar elemento to Editar usuarios--><g id="link_Editar elemento_Editar usuarios"><path d="M1767.04,198.09 C1779.86,233.56 1803.9,317.91 1766.5,371.5 C1721.52,435.96 1673.81,404.14 1600.5,432.5 C1588.08,437.31 1574.77,442.62 1562.27,447.69 " fill="none" id="Editar elemento-to-Editar usuarios" style="stroke:#181818;stroke-width:1.0;"/><polygon fill="none" points="1564.69,454.26,1543.53,455.34,1559.4,441.3,1564.69,454.26" style="stroke:#181818;stroke-width:1.0;"/></g><!--MD5=[c2fc167fb9644c3ae69afdb072406175]
link Editar elemento to Editar facturas--><g id="link_Editar elemento_Editar facturas"><path d="M1751.35,197.95 C1737.96,222.01 1712.74,267.36 1695.29,298.72 " fill="none" id="Editar elemento-to-Editar facturas" style="stroke:#181818;stroke-width:1.0;"/><polygon fill="none" points="1701.22,302.45,1685.38,316.53,1688.99,295.65,1701.22,302.45" style="stroke:#181818;stroke-width:1.0;"/></g><!--MD5=[8dda723358a0fd548ad449c0b7c72031]
link Crear usuarios to Enviar correo--><g id="link_Crear usuarios_Enviar correo"><path d="M1353.54,486.54 C1397.63,513.01 1488.78,567.74 1534.73,595.33 " fill="none" id="Crear usuarios-to-Enviar correo" style="stroke:#181818;stroke-width:1.0;stroke-dasharray:7.0,7.0;"/><polygon fill="#181818" points="1539.03,597.91,1533.3903,589.8357,1534.7488,595.327,1529.2575,596.6856,1539.03,597.91" style="stroke:#181818;stroke-width:1.0;"/><text fill="#000000" font-family="sans-serif" font-size="13" lengthAdjust="spacing" textLength="61" x="1466.5" y="551.5669">«Include»</text></g><!--MD5=[6b530d630d1b4f762f28b7e0aa91a782]
reverse link Hacer oferta to Reducir precio productos--><g id="link_Hacer oferta_Reducir precio productos"><path d="M515.76,491.43 C521.26,517.23 530.84,562.09 536.63,589.21 " fill="none" id="Hacer oferta-backto-Reducir precio productos" style="stroke:#181818;stroke-width:1.0;stroke-dasharray:7.0,7.0;"/><polygon fill="#181818" points="514.71,486.54,512.6711,496.1755,515.7508,491.4305,520.4959,494.5102,514.71,486.54" style="stroke:#181818;stroke-width:1.0;"/><text fill="#000000" font-family="sans-serif" font-size="13" lengthAdjust="spacing" textLength="60" x="530.5" y="551.5669">«Extend»</text></g><!--MD5=[b64da3bee440a66807c98c0817529716]
@startuml
:cliente :- -> (Visualizar fotos)  
 (Visualizar fotos)  <|- - (Consultar fotos)
 (Visualizar fotos)  <|- - (Buscar detalles en fotos)
 :cliente : - ->   (Consultar fotos)
 :Controlador_de_fotos  :- ->   (Marcar un producto)
 :Controlador_de_fotos  :- ->   (Editar información fotos)
 :Vendedor  :- -> (Buscar detalles en fotos)
 :Vendedor  :- ->  (Hacer oferta)
 :Actor_comun :- ->  (Ver ofertas)
 :Actor_comun : <|- - :cliente :
  :Actor_comun: <|- - :Gestor :
 :Gestor :- -> (Emitir factura)
  :Gestor :- -> (Bloquear ofertas)
   :Gestor :- -> (Editar facturas)
   :Gestor :- -|> :Administrador :
 :Administrador : - -> (Editar usuarios)
:Administrador : - ->  (Crear usuarios)
 :Software_facturación :- -> (Emitir factura)
 :Gestor_correo : - ->  (Enviar correo)
 (Denunciar foto)- -|>   (Marcar un producto)
 (Denunciar foto)- -> (Visualizar fotos)#line.dashed;text:black : <<Extend>>
 (Denunciar foto)- ->  (Introducir explicación)#line.dashed;text:black : <<Include>>
 (Buscar detalles en fotos) - ->   (Verificar información de entrada)#line.dashed;text:black : <<Include>>
 (Editar elemento) - -|> (Editar usuarios)
 (Editar elemento) - -|> (Editar facturas) 
 (Crear usuarios) - ->(Enviar correo)#line.dashed;text:black :  <<Include>>
 (Hacer oferta) <- -(Reducir precio productos)#line.dashed;text:black : <<Extend>>
(Visualizar fotos) as "-extension points-"
@enduml

PlantUML version 1.2022.7(Mon Aug 22 19:01:30 CEST 2022)
(GPL source distribution)
Java Runtime: OpenJDK Runtime Environment
JVM: OpenJDK 64-Bit Server VM
Default Encoding: UTF-8
Language: es
Country: ES
--></g></svg>