<?xml version="1.0" encoding="UTF-8" standalone="no"?><svg xmlns="http://www.w3.org/2000/svg" xmlns:xlink="http://www.w3.org/1999/xlink" contentStyleType="text/css" height="561px" preserveAspectRatio="none" style="width:1098px;height:561px;background:#FFFFFF;" version="1.1" viewBox="0 0 1098 561" width="1098px" zoomAndPan="magnify"><defs/><g><!--MD5=[5d9c7ad096abb1f9498e71bc4f4541e5]
entity al--><g id="elem_al"><ellipse cx="625.5" cy="14" fill="#F1F1F1" rx="8" ry="8" style="stroke:#181818;stroke-width:0.5;"/><path d="M625.5,22 L625.5,49 M612.5,30 L638.5,30 M625.5,49 L612.5,64 M625.5,49 L638.5,64 " fill="none" style="stroke:#181818;stroke-width:0.5;"/><text fill="#000000" font-family="sans-serif" font-size="14" lengthAdjust="spacing" textLength="47" x="602" y="80.0332">Alumno</text></g><g id="elem_PM"><ellipse cx="195.6111" cy="292.7222" fill="#F1F1F1" rx="74.1111" ry="17.2222" style="stroke:#181818;stroke-width:0.5;"/><text fill="#000000" font-family="sans-serif" font-size="14" lengthAdjust="spacing" textLength="99" x="143.1111" y="297.2388">Pagar matrícula</text></g><g id="elem_EB"><ellipse cx="1025.2537" cy="414.2507" fill="#F1F1F1" rx="66.7537" ry="15.7507" style="stroke:#181818;stroke-width:0.5;"/><text fill="#000000" font-family="sans-serif" font-size="14" lengthAdjust="spacing" textLength="78" x="983.2537" y="418.7673">Elegir becas</text></g><g id="elem_RP"><ellipse cx="407.2928" cy="292.3586" fill="#F1F1F1" rx="102.2928" ry="22.8586" style="stroke:#181818;stroke-width:0.5;"/><text fill="#000000" font-family="sans-serif" font-size="14" lengthAdjust="spacing" textLength="166" x="324.2928" y="296.0871">Rellenar datos personales</text></g><g id="elem_ED"><ellipse cx="625.3923" cy="414.3785" fill="#F1F1F1" rx="87.3923" ry="19.8785" style="stroke:#181818;stroke-width:0.5;"/><text fill="#000000" font-family="sans-serif" font-size="14" lengthAdjust="spacing" textLength="132" x="559.3923" y="418.107">Elegir grupo docente</text></g><g id="elem_ET"><ellipse cx="625.5017" cy="534.5003" fill="#F1F1F1" rx="93.0017" ry="21.0003" style="stroke:#181818;stroke-width:0.5;"/><text fill="#000000" font-family="sans-serif" font-size="14" lengthAdjust="spacing" textLength="145" x="553.0017" y="538.2289">Elegir grupo de trabajo</text></g><g id="elem_EA"><ellipse cx="625.3789" cy="292.3758" fill="#F1F1F1" rx="79.8789" ry="18.3758" style="stroke:#181818;stroke-width:0.5;"/><text fill="#000000" font-family="sans-serif" font-size="14" lengthAdjust="spacing" textLength="114" x="567.3373" y="296.4024">Elegir asignaturas</text></g><g id="elem_IS"><ellipse cx="625.5397" cy="167.8079" fill="#F1F1F1" rx="104.5397" ry="23.3079" style="stroke:#181818;stroke-width:0.5;"/><text fill="#000000" font-family="sans-serif" font-size="14" lengthAdjust="spacing" textLength="171" x="540.0397" y="171.5365">Iniciar sesión automatrícula</text></g><g id="elem_EP"><ellipse cx="833.566" cy="292.4132" fill="#F1F1F1" rx="92.566" ry="20.9132" style="stroke:#181818;stroke-width:0.5;"/><text fill="#000000" font-family="sans-serif" font-size="14" lengthAdjust="spacing" textLength="144" x="761.566" y="296.1417">Elegir plan de estudios</text></g><g id="elem_TB"><ellipse cx="1025.3631" cy="292.609" fill="#F1F1F1" rx="63.8631" ry="15.609" style="stroke:#181818;stroke-width:0.5;"/><text fill="#000000" font-family="sans-serif" font-size="14" lengthAdjust="spacing" textLength="73" x="985.8631" y="297.1256">Tener beca</text></g><g id="elem_Elegir plan de pago"><ellipse cx="89.5873" cy="414.6175" fill="#F1F1F1" rx="83.5873" ry="19.1175" style="stroke:#181818;stroke-width:0.5;"/><text fill="#000000" font-family="sans-serif" font-size="14" lengthAdjust="spacing" textLength="123" x="28.0873" y="418.346">Elegir plan de pago</text></g><g id="elem_Añadir cuenta bancaria"><ellipse cx="302.3753" cy="414.6751" fill="#F1F1F1" rx="93.8753" ry="21.1751" style="stroke:#181818;stroke-width:0.5;"/><text fill="#000000" font-family="sans-serif" font-size="14" lengthAdjust="spacing" textLength="147" x="228.8753" y="418.4036">Añadir cuenta bancaria</text></g><!--MD5=[167c800167994a13420343e2f6d0a28e]
link al to IS--><g id="link_al_IS"><path d="M625.5,83.61 C625.5,103.51 625.5,127.2 625.5,144.23 " fill="none" id="al-IS" style="stroke:#181818;stroke-width:1.0;"/></g><!--MD5=[21379fe6c4b4613cc24f53a449cca3f9]
link IS to EP--><g id="link_IS_EP"><path d="M661.73,190.34 C699.65,212.67 758.85,247.53 796.9,269.95 " fill="none" id="IS-to-EP" style="stroke:#181818;stroke-width:1.0;stroke-dasharray:7.0,7.0;"/><polygon fill="#181818" points="801.43,272.62,795.6879,264.6182,797.1163,270.0918,791.6427,271.5201,801.43,272.62" style="stroke:#181818;stroke-width:1.0;"/><text fill="#000000" font-family="sans-serif" font-size="13" lengthAdjust="spacing" textLength="55" x="743.5" y="235.9951">«include»</text></g><!--MD5=[3f0e2e3401f9d60a41c6f99cde080c28]
link IS to RP--><g id="link_IS_RP"><path d="M588.02,190.06 C549.3,211.82 489.02,245.69 448.91,268.23 " fill="none" id="IS-to-RP" style="stroke:#181818;stroke-width:1.0;stroke-dasharray:7.0,7.0;"/><polygon fill="#181818" points="444.12,270.92,453.9265,270.0077,448.4813,268.4748,450.0142,263.0296,444.12,270.92" style="stroke:#181818;stroke-width:1.0;"/><text fill="#000000" font-family="sans-serif" font-size="13" lengthAdjust="spacing" textLength="55" x="531.5" y="235.9951">«include»</text></g><!--MD5=[1c43ff85c755ed938442337020745982]
link IS to EA--><g id="link_IS_EA"><path d="M625.5,191.75 C625.5,213.66 625.5,246.62 625.5,268.58 " fill="none" id="IS-to-EA" style="stroke:#181818;stroke-width:1.0;stroke-dasharray:7.0,7.0;"/><polygon fill="#181818" points="625.5,273.64,629.5,264.64,625.5,268.64,621.5,264.64,625.5,273.64" style="stroke:#181818;stroke-width:1.0;"/><text fill="#000000" font-family="sans-serif" font-size="13" lengthAdjust="spacing" textLength="55" x="626.5" y="235.9951">«include»</text></g><!--MD5=[38fa25e4200a17d02d52c8d345c53f72]
link IS to TB--><g id="link_IS_TB"><path d="M688.81,186.76 C723.86,196.72 768.18,209.52 807.5,221.5 C869.38,240.35 940.67,263.52 984.41,277.9 " fill="none" id="IS-to-TB" style="stroke:#181818;stroke-width:1.0;stroke-dasharray:7.0,7.0;"/><polygon fill="#181818" points="989.35,279.53,982.0409,272.9287,984.5981,277.9746,979.5522,280.5318,989.35,279.53" style="stroke:#181818;stroke-width:1.0;"/><text fill="#000000" font-family="sans-serif" font-size="13" lengthAdjust="spacing" textLength="55" x="862.5" y="235.9951">«include»</text></g><!--MD5=[9f2d8018bba40a90cdcd71ed88cc7545]
link IS to PM--><g id="link_IS_PM"><path d="M561.85,186.75 C525.67,196.88 479.53,209.83 438.5,221.5 C371.14,240.66 293.37,263.12 244.32,277.33 " fill="none" id="IS-to-PM" style="stroke:#181818;stroke-width:1.0;stroke-dasharray:7.0,7.0;"/><polygon fill="#181818" points="239.37,278.76,249.1263,280.1068,244.1738,277.3732,246.9074,272.4207,239.37,278.76" style="stroke:#181818;stroke-width:1.0;"/><text fill="#000000" font-family="sans-serif" font-size="13" lengthAdjust="spacing" textLength="55" x="439.5" y="235.9951">«include»</text></g><!--MD5=[7106b166f6d891d466672d0b520ae4a5]
link PM to Elegir plan de pago--><g id="link_PM_Elegir plan de pago"><path d="M181.2,309.68 C162.51,330.85 129.68,368.01 108.79,391.66 " fill="none" id="PM-to-Elegir plan de pago" style="stroke:#181818;stroke-width:1.0;stroke-dasharray:7.0,7.0;"/><polygon fill="#181818" points="105.29,395.62,114.2424,391.5146,108.5967,391.8696,108.2417,386.2239,105.29,395.62" style="stroke:#181818;stroke-width:1.0;"/><text fill="#000000" font-family="sans-serif" font-size="13" lengthAdjust="spacing" textLength="55" x="150.5" y="359.9951">«include»</text></g><!--MD5=[4d0eb39d7ae5ee39390b709811d3b4ce]
link PM to Añadir cuenta bancaria--><g id="link_PM_Añadir cuenta bancaria"><path d="M209.93,309.68 C228.26,330.25 260.06,365.9 281.19,389.6 " fill="none" id="PM-to-Añadir cuenta bancaria" style="stroke:#181818;stroke-width:1.0;stroke-dasharray:7.0,7.0;"/><polygon fill="#181818" points="284.74,393.59,281.7303,384.2123,281.4102,389.8601,275.7624,389.5399,284.74,393.59" style="stroke:#181818;stroke-width:1.0;"/><text fill="#000000" font-family="sans-serif" font-size="13" lengthAdjust="spacing" textLength="55" x="256.5" y="359.9951">«include»</text></g><!--MD5=[281adfe5de59449037087afbfb403550]
link TB to EB--><g id="link_TB_EB"><path d="M1025.5,308.21 C1025.5,329.51 1025.5,369 1025.5,393.1 " fill="none" id="TB-to-EB" style="stroke:#181818;stroke-width:1.0;stroke-dasharray:7.0,7.0;"/><polygon fill="#181818" points="1025.5,398.29,1029.5,389.29,1025.5,393.29,1021.5,389.29,1025.5,398.29" style="stroke:#181818;stroke-width:1.0;"/><text fill="#000000" font-family="sans-serif" font-size="13" lengthAdjust="spacing" textLength="55" x="1026.5" y="359.9951">«include»</text></g><!--MD5=[c7ebfe19015e1cc0824c5514c162f5f6]
link EA to ED--><g id="link_EA_ED"><path d="M625.5,311.21 C625.5,331.81 625.5,365.97 625.5,389.08 " fill="none" id="EA-to-ED" style="stroke:#181818;stroke-width:1.0;stroke-dasharray:7.0,7.0;"/><polygon fill="#181818" points="625.5,394.13,629.5,385.13,625.5,389.13,621.5,385.13,625.5,394.13" style="stroke:#181818;stroke-width:1.0;"/><text fill="#000000" font-family="sans-serif" font-size="13" lengthAdjust="spacing" textLength="55" x="626.5" y="359.9951">«include»</text></g><!--MD5=[18beed53b994a5e5a168b573741cb834]
link ED to ET--><g id="link_ED_ET"><path d="M625.5,434.72 C625.5,454.79 625.5,486.36 625.5,508.39 " fill="none" id="ED-to-ET" style="stroke:#181818;stroke-width:1.0;stroke-dasharray:7.0,7.0;"/><polygon fill="#181818" points="625.5,513.5,629.5,504.5,625.5,508.5,621.5,504.5,625.5,513.5" style="stroke:#181818;stroke-width:1.0;"/><text fill="#000000" font-family="sans-serif" font-size="13" lengthAdjust="spacing" textLength="55" x="626.5" y="479.9951">«include»</text></g><!--MD5=[eefaf4eae92c35a63a351c4f6756cf33]
@startuml

actor Alumno as al
usecase PM as "Pagar matrícula"
usecase EB as "Elegir becas"
usecase RP as "Rellenar datos personales"
usecase ED as "Elegir grupo docente"
usecase ET as "Elegir grupo de trabajo"
usecase EA as "Elegir asignaturas"
usecase IS as "Iniciar sesión automatrícula"
usecase EP as "Elegir plan de estudios"
usecase TB as "Tener beca"
al - - IS
IS ..> EP#line.dashed;text:black : <<include>>
IS ..> RP#line.dashed;text:black : <<include>>
IS ..> EA#line.dashed;text:black : <<include>>
IS ..> TB#line.dashed;text:black : <<include>>
IS ..> PM#line.dashed;text:black : <<include>>
PM ..> (Elegir plan de pago)#line.dashed;text:black : <<include>>
PM ..> (Añadir cuenta bancaria)#line.dashed;text:black : <<include>>
TB ..> EB#line.dashed;text:black : <<include>>
EA ..> ED#line.dashed;text:black : <<include>>
ED ..> ET#line.dashed;text:black : <<include>>

@enduml

PlantUML version 1.2022.7(Mon Aug 22 19:01:30 CEST 2022)
(GPL source distribution)
Java Runtime: Java(TM) SE Runtime Environment
JVM: Java HotSpot(TM) 64-Bit Server VM
Default Encoding: Cp1252
Language: es
Country: ES
--></g></svg>