<?xml version="1.0" encoding="UTF-8" standalone="no"?><svg xmlns="http://www.w3.org/2000/svg" xmlns:xlink="http://www.w3.org/1999/xlink" contentStyleType="text/css" height="742px" preserveAspectRatio="none" style="width:3658px;height:742px;background:#FFFFFF;" version="1.1" viewBox="0 0 3658 742" width="3658px" zoomAndPan="magnify"><defs/><g><!--MD5=[819c4742d1654f175059aef269d4e739]
entity gCorreo--><g id="elem_gCorreo"><ellipse cx="75" cy="304" fill="#F1F1F1" rx="8" ry="8" style="stroke:#181818;stroke-width:0.5;"/><path d="M75,312 L75,339 M62,320 L88,320 M75,339 L62,354 M75,339 L88,354 " fill="none" style="stroke:#181818;stroke-width:0.5;"/><text fill="#000000" font-family="sans-serif" font-size="14" lengthAdjust="spacing" textLength="96" x="27" y="368.4951">Gestor correo</text></g><!--MD5=[92dcb15e75e8e5ff9dcc1de1317f5f50]
entity tec--><g id="elem_tec"><ellipse cx="1849" cy="151" fill="#F1F1F1" rx="8" ry="8" style="stroke:#181818;stroke-width:0.5;"/><path d="M1849,159 L1849,186 M1836,167 L1862,167 M1849,186 L1836,201 M1849,186 L1862,201 " fill="none" style="stroke:#181818;stroke-width:0.5;"/><text fill="#000000" font-family="sans-serif" font-size="14" lengthAdjust="spacing" textLength="55" x="1821.5" y="215.4951">Tecnico</text></g><!--MD5=[c85c3f7a8a2bade579e4fd3bd13e094e]
entity op--><g id="elem_op"><ellipse cx="2825" cy="151" fill="#F1F1F1" rx="8" ry="8" style="stroke:#181818;stroke-width:0.5;"/><path d="M2825,159 L2825,186 M2812,167 L2838,167 M2825,186 L2812,201 M2825,186 L2838,201 " fill="none" style="stroke:#181818;stroke-width:0.5;"/><text fill="#000000" font-family="sans-serif" font-size="14" lengthAdjust="spacing" textLength="65" x="2792.5" y="215.4951">Operador</text></g><!--MD5=[79a439086b036a57b90a01d7b2f8bbd1]
entity admin--><g id="elem_admin"><ellipse cx="2060" cy="14" fill="#F1F1F1" rx="8" ry="8" style="stroke:#181818;stroke-width:0.5;"/><path d="M2060,22 L2060,49 M2047,30 L2073,30 M2060,49 L2047,64 M2060,49 L2073,64 " fill="none" style="stroke:#181818;stroke-width:0.5;"/><text fill="#000000" font-family="sans-serif" font-size="14" lengthAdjust="spacing" textLength="95" x="2012.5" y="78.4951">Administrador</text></g><!--MD5=[08f9a3cc545cdc36085d212eea24f7c3]
entity invi--><g id="elem_invi"><ellipse cx="730" cy="304" fill="#F1F1F1" rx="8" ry="8" style="stroke:#181818;stroke-width:0.5;"/><path d="M730,312 L730,339 M717,320 L743,320 M730,339 L717,354 M730,339 L743,354 " fill="none" style="stroke:#181818;stroke-width:0.5;"/><text fill="#000000" font-family="sans-serif" font-size="14" lengthAdjust="spacing" textLength="53" x="703.5" y="368.4951">Invitado</text></g><!--MD5=[fcbb457dc90963b96ea25a9869582b92]
entity cato--><g id="elem_cato"><ellipse cx="1548" cy="457" fill="#F1F1F1" rx="8" ry="8" style="stroke:#181818;stroke-width:0.5;"/><path d="M1548,465 L1548,492 M1535,473 L1561,473 M1548,492 L1535,507 M1548,492 L1561,507 " fill="none" style="stroke:#181818;stroke-width:0.5;"/><text fill="#000000" font-family="sans-serif" font-size="14" lengthAdjust="spacing" textLength="79" x="1508.5" y="521.4951">ComunATO</text></g><!--MD5=[95aaeb8ba6157c3876354dd8c3616f4f]
entity cto--><g id="elem_cto"><ellipse cx="1637" cy="304" fill="#F1F1F1" rx="8" ry="8" style="stroke:#181818;stroke-width:0.5;"/><path d="M1637,312 L1637,339 M1624,320 L1650,320 M1637,339 L1624,354 M1637,339 L1650,354 " fill="none" style="stroke:#181818;stroke-width:0.5;"/><text fill="#000000" font-family="sans-serif" font-size="14" lengthAdjust="spacing" textLength="70" x="1602" y="368.4951">ComunTO</text></g><g id="elem_consato"><ellipse cx="1858.7877" cy="609.3575" fill="#F1F1F1" rx="107.2877" ry="23.8575" style="stroke:#181818;stroke-width:0.5;"/><text fill="#000000" font-family="sans-serif" font-size="14" lengthAdjust="spacing" textLength="180" x="1768.7877" y="612.2042">Consultar incidencias ATO</text></g><g id="elem_edit"><ellipse cx="1585.8536" cy="609.3707" fill="#F1F1F1" rx="77.3536" ry="17.8707" style="stroke:#181818;stroke-width:0.5;"/><text fill="#000000" font-family="sans-serif" font-size="14" lengthAdjust="spacing" textLength="112" x="1527.1333" y="613.0454">Editar incidencia</text></g><g id="elem_correo"><ellipse cx="74.964" cy="486.6928" fill="#F1F1F1" rx="68.964" ry="16.1928" style="stroke:#181818;stroke-width:0.5;"/><text fill="#000000" font-family="sans-serif" font-size="14" lengthAdjust="spacing" textLength="90" x="26.964" y="490.4404">Enviar correo</text></g><g id="elem_alta"><ellipse cx="1719.8093" cy="486.2619" fill="#F1F1F1" rx="96.8093" ry="21.7619" style="stroke:#181818;stroke-width:0.5;"/><text fill="#000000" font-family="sans-serif" font-size="14" lengthAdjust="spacing" textLength="157" x="1641.3093" y="489.1085">Dar de alta localizacion</text></g><g id="elem_cons"><ellipse cx="1474.8318" cy="715.3664" fill="#F1F1F1" rx="92.3318" ry="20.8664" style="stroke:#181818;stroke-width:0.5;"/><text fill="#000000" font-family="sans-serif" font-size="14" lengthAdjust="spacing" textLength="147" x="1401.3318" y="718.213">Consultar incidencias</text></g><g id="elem_rInforme"><ellipse cx="2105.7839" cy="333.3568" fill="#F1F1F1" rx="79.7839" ry="18.3568" style="stroke:#181818;stroke-width:0.5;"/><text fill="#000000" font-family="sans-serif" font-size="14" lengthAdjust="spacing" textLength="118" x="2045.0356" y="336.7613">Realizar informes</text></g><g id="elem_comp"><ellipse cx="2354.9969" cy="333.6994" fill="#F1F1F1" rx="133.9969" ry="29.1994" style="stroke:#181818;stroke-width:0.5;"/><text fill="#000000" font-family="sans-serif" font-size="14" lengthAdjust="spacing" textLength="237" x="2236.4969" y="336.5461">Comprobar datos sobre incidencia</text></g><g id="elem_explicacion"><ellipse cx="1309.9431" cy="486.6886" fill="#F1F1F1" rx="91.4431" ry="20.6886" style="stroke:#181818;stroke-width:0.5;"/><text fill="#000000" font-family="sans-serif" font-size="14" lengthAdjust="spacing" textLength="145" x="1237.4431" y="489.5353">Introducir explicacion</text></g><g id="elem_foto"><ellipse cx="1123.8197" cy="486.2671" fill="#F1F1F1" rx="59.3197" ry="14.7671" style="stroke:#181818;stroke-width:0.5;"/><text fill="#000000" font-family="sans-serif" font-size="14" lengthAdjust="spacing" textLength="66" x="1087.8197" y="490.0147">Subir foto</text></g><g id="elem_posible"><ellipse cx="863.8973" cy="486.6795" fill="#F1F1F1" rx="118.8973" ry="26.1795" style="stroke:#181818;stroke-width:0.5;"/><text fill="#000000" font-family="sans-serif" font-size="14" lengthAdjust="spacing" textLength="205" x="761.3973" y="489.5261">Informar de posible incidencia</text></g><g id="elem_tlft"><ellipse cx="1849.1224" cy="333.7245" fill="#F1F1F1" rx="141.6224" ry="30.7245" style="stroke:#181818;stroke-width:0.5;"/><text fill="#000000" font-family="sans-serif" font-size="14" lengthAdjust="spacing" textLength="253" x="1722.6224" y="336.5712">Atender llamadas telefonicas tecnico</text></g><g id="elem_tlf"><ellipse cx="2562.1274" cy="486.5255" fill="#F1F1F1" rx="115.6274" ry="25.5255" style="stroke:#181818;stroke-width:0.5;"/><text fill="#000000" font-family="sans-serif" font-size="14" lengthAdjust="spacing" textLength="198" x="2463.1274" y="489.3722">Atender llamadas telefonicas</text></g><g id="elem_otlf"><ellipse cx="3155.8682" cy="333.3736" fill="#F1F1F1" rx="147.3682" ry="31.8736" style="stroke:#181818;stroke-width:0.5;"/><text fill="#000000" font-family="sans-serif" font-size="14" lengthAdjust="spacing" textLength="265" x="3023.3682" y="336.2203">Atender llamadas telefonicas operador</text></g><g id="elem_new"><ellipse cx="3519.0217" cy="333.6043" fill="#F1F1F1" rx="133.5217" ry="29.1043" style="stroke:#181818;stroke-width:0.5;"/><text fill="#000000" font-family="sans-serif" font-size="14" lengthAdjust="spacing" textLength="236" x="3401.0217" y="336.451">Introducir nuevos datos incidencia</text></g><g id="elem_login"><ellipse cx="312.9969" cy="486.6994" fill="#F1F1F1" rx="133.9969" ry="29.1994" style="stroke:#181818;stroke-width:0.5;"/><text fill="#000000" font-family="sans-serif" font-size="14" lengthAdjust="spacing" textLength="237" x="194.4969" y="489.5461">Registrarse para ver notificaciones</text></g><g id="elem_lista"><ellipse cx="595.8004" cy="486.5601" fill="#F1F1F1" rx="113.3004" ry="25.0601" style="stroke:#181818;stroke-width:0.5;"/><text fill="#000000" font-family="sans-serif" font-size="14" lengthAdjust="spacing" textLength="193" x="499.3004" y="489.4068">Ver listado de notificaciones</text></g><g id="elem_ord"><ellipse cx="2611.9128" cy="333.4826" fill="#F1F1F1" rx="87.9128" ry="19.9826" style="stroke:#181818;stroke-width:0.5;"/><text fill="#000000" font-family="sans-serif" font-size="14" lengthAdjust="spacing" textLength="137" x="2543.4128" y="336.3292">Ordenar incidencias</text></g><g id="elem_dup"><ellipse cx="2853.8973" cy="333.6795" fill="#F1F1F1" rx="118.8973" ry="26.1795" style="stroke:#181818;stroke-width:0.5;"/><text fill="#000000" font-family="sans-serif" font-size="14" lengthAdjust="spacing" textLength="205" x="2751.3973" y="336.5261">Marcar incidencias duplicadas</text></g><g id="elem_aord"><ellipse cx="2060.0468" cy="180.5094" fill="#F1F1F1" rx="133.0468" ry="29.0094" style="stroke:#181818;stroke-width:0.5;"/><text fill="#000000" font-family="sans-serif" font-size="14" lengthAdjust="spacing" textLength="235" x="1942.5468" y="183.356">Ordenar incidencias administrador</text></g><g id="elem_com"><ellipse cx="2357.212" cy="180.4424" fill="#F1F1F1" rx="82.712" ry="18.9424" style="stroke:#181818;stroke-width:0.5;"/><text fill="#000000" font-family="sans-serif" font-size="14" lengthAdjust="spacing" textLength="125" x="2294.0208" y="183.5215">Añadir comentario</text></g><g id="elem_calc"><ellipse cx="2608.9721" cy="180.2944" fill="#F1F1F1" rx="134.4721" ry="29.2944" style="stroke:#181818;stroke-width:0.5;"/><text fill="#000000" font-family="sans-serif" font-size="14" lengthAdjust="spacing" textLength="238" x="2489.9721" y="183.1411">Gestionar categoria de incidencias</text></g><!--MD5=[96bd00417e0724bb823ea27ab2a4f554]
link tec to cto--><g id="link_tec_cto"><path d="M1821.28,201.24 C1787.65,225.2 1730.24,266.09 1688.42,295.87 " fill="none" id="tec-to-cto" style="stroke:#181818;stroke-width:1.0;"/><polygon fill="none" points="1692.48,301.58,1672.13,307.48,1684.36,290.17,1692.48,301.58" style="stroke:#181818;stroke-width:1.0;"/></g><!--MD5=[c805231f69e6c50d5f135ff5c9bf2ab2]
link op to cto--><g id="link_op_cto"><path d="M2792.41,204.02 C2782.7,209.69 2771.78,215.12 2761,218.5 C2524.83,292.68 2452.92,247.87 2206,265.5 C2096.91,273.29 1826.15,259.33 1691.3,297.94 " fill="none" id="op-to-cto" style="stroke:#181818;stroke-width:1.0;"/><polygon fill="none" points="1693.22,304.67,1672.04,304.16,1688.91,291.35,1693.22,304.67" style="stroke:#181818;stroke-width:1.0;"/></g><!--MD5=[3cd7d8e1d52c0d020f3da3f3341dba75]
link cto to cato--><g id="link_cto_cato"><path d="M1615,371.83 C1604.48,389.68 1591.68,411.4 1580.09,431.05 " fill="none" id="cto-to-cato" style="stroke:#181818;stroke-width:1.0;"/><polygon fill="none" points="1586.09,434.67,1569.9,448.34,1574.03,427.56,1586.09,434.67" style="stroke:#181818;stroke-width:1.0;"/></g><!--MD5=[f6be405d7a995ec795b8dca5d4bfd789]
link admin to cato--><g id="link_admin_cato"><path d="M2012.14,53.66 C1912.6,75.51 1684.25,140.87 1584,295.5 C1558.46,334.9 1550.08,387.96 1547.73,428 " fill="none" id="admin-to-cato" style="stroke:#181818;stroke-width:1.0;"/><polygon fill="none" points="1554.72,428.44,1546.99,448.16,1540.73,427.92,1554.72,428.44" style="stroke:#181818;stroke-width:1.0;"/></g><!--MD5=[1f67427b7e978631a90bea53198d3df2]
link consato to cons--><g id="link_consato_cons"><path d="M1792.55,628.5 C1725.59,646.63 1622.35,674.59 1551.89,693.68 " fill="none" id="consato-to-cons" style="stroke:#181818;stroke-width:1.0;"/><polygon fill="none" points="1553.63,700.46,1532.5,698.93,1549.97,686.94,1553.63,700.46" style="stroke:#181818;stroke-width:1.0;"/></g><!--MD5=[1cac17ffd46c7b443ae4ea2147048d9c]
link tlft to tlf--><g id="link_tlft_tlf"><path d="M1942.23,356.62 C1963.8,361.62 1986.68,366.83 2008,371.5 C2164.6,405.83 2346.79,442.74 2458.23,464.97 " fill="none" id="tlft-to-tlf" style="stroke:#181818;stroke-width:1.0;"/><polygon fill="none" points="2459.61,458.11,2477.86,468.88,2456.87,471.84,2459.61,458.11" style="stroke:#181818;stroke-width:1.0;"/></g><!--MD5=[8f17ad2d6ad13e5e26579208625616d0]
link otlf to tlf--><g id="link_otlf_tlf"><path d="M3062.53,358.26 C2951.23,386.55 2766.45,433.53 2655.24,461.8 " fill="none" id="otlf-to-tlf" style="stroke:#181818;stroke-width:1.0;"/><polygon fill="none" points="2656.81,468.62,2635.7,466.76,2653.36,455.05,2656.81,468.62" style="stroke:#181818;stroke-width:1.0;"/></g><!--MD5=[16f25b19390f3f0432b10867800bbf48]
link aord to ord--><g id="link_aord_ord"><path d="M2149.47,201.99 C2239.97,223.27 2383.58,258.56 2506,295.5 C2519.95,299.71 2534.8,304.62 2548.82,309.45 " fill="none" id="aord-to-ord" style="stroke:#181818;stroke-width:1.0;"/><polygon fill="none" points="2551.38,302.93,2567.92,316.17,2546.73,316.14,2551.38,302.93" style="stroke:#181818;stroke-width:1.0;"/></g><!--MD5=[3f72a07cd0e75bc6ceccd37868c626fa]
link correo to alta--><g id="link_correo_alta"><path d="M101.58,471.58 C118.12,463.1 140.15,453.27 161,448.5 C399.09,394.07 1015.58,401.18 1259.5,413.5 C1413.64,421.29 1454.05,416.32 1605,448.5 C1625.19,452.8 1646.81,459.4 1665.79,465.89 " fill="none" id="correo-to-alta" style="stroke:#181818;stroke-width:1.0;stroke-dasharray:7.0,7.0;"/><polygon fill="#181818" points="1670.56,467.54,1663.3531,460.8273,1665.8325,465.9118,1660.748,468.3912,1670.56,467.54" style="stroke:#181818;stroke-width:1.0;"/><text fill="#000000" font-family="sans-serif" font-size="13" lengthAdjust="spacing" textLength="51" x="1207.5" y="414.5669">extends</text></g><!--MD5=[26fa26d71d62c4704ce4bf1c536c4e9f]
link edit to consato--><g id="link_edit_consato"><path d="M1663.5,609.5 C1689.25,609.5 1718.46,609.5 1746.31,609.5 " fill="none" id="edit-to-consato" style="stroke:#181818;stroke-width:1.0;stroke-dasharray:7.0,7.0;"/><polygon fill="#181818" points="1751.5,609.5,1742.5,605.5,1746.5,609.5,1742.5,613.5,1751.5,609.5" style="stroke:#181818;stroke-width:1.0;"/><text fill="#000000" font-family="sans-serif" font-size="13" lengthAdjust="spacing" textLength="51" x="1682" y="602.5669">extends</text></g><!--MD5=[fb61f52bb626faa22597b47f22b50f79]
link posible to alta--><g id="link_posible_alta"><path d="M945.15,467.4 C976.78,460.55 1013.44,453.33 1047,448.5 C1152.53,433.32 1420.6,394.46 1525.5,413.5 C1578.7,423.15 1636.29,446.53 1674.88,464.25 " fill="none" id="posible-to-alta" style="stroke:#181818;stroke-width:1.0;stroke-dasharray:7.0,7.0;"/><polygon fill="#181818" points="1679.49,466.38,1672.999,458.9728,1674.9515,464.282,1669.6422,466.2344,1679.49,466.38" style="stroke:#181818;stroke-width:1.0;"/><text fill="#000000" font-family="sans-serif" font-size="13" lengthAdjust="spacing" textLength="45" x="1479.5" y="414.5669">include</text></g><!--MD5=[081e5b0c08a8f2fb9e645238da6553b7]
link posible to explicacion--><g id="link_posible_explicacion"><path d="M905.64,461.95 C955.01,435.77 1040.12,399.82 1115.5,413.5 C1170.06,423.4 1229.24,447.74 1267.81,465.6 " fill="none" id="posible-to-explicacion" style="stroke:#181818;stroke-width:1.0;stroke-dasharray:7.0,7.0;"/><polygon fill="#181818" points="1272.41,467.75,1265.9472,460.3182,1267.8794,465.6348,1262.5628,467.5671,1272.41,467.75" style="stroke:#181818;stroke-width:1.0;"/><text fill="#000000" font-family="sans-serif" font-size="13" lengthAdjust="spacing" textLength="45" x="1069.5" y="414.5669">include</text></g><!--MD5=[d782863b83ec5407057d64b21bafddcd]
link posible to foto--><g id="link_posible_foto"><path d="M983.35,486.5 C1009.41,486.5 1036.05,486.5 1059.03,486.5 " fill="none" id="posible-to-foto" style="stroke:#181818;stroke-width:1.0;stroke-dasharray:7.0,7.0;"/><polygon fill="#181818" points="1064.18,486.5,1055.18,482.5,1059.18,486.5,1055.18,490.5,1064.18,486.5" style="stroke:#181818;stroke-width:1.0;"/><text fill="#000000" font-family="sans-serif" font-size="13" lengthAdjust="spacing" textLength="45" x="1001.25" y="479.5669">include</text></g><!--MD5=[d0943784e4b269b6ecc63fda068a9d06]
link otlf to new--><g id="link_otlf_new"><path d="M3303.65,333.5 C3328.84,333.5 3354.94,333.5 3379.91,333.5 " fill="none" id="otlf-to-new" style="stroke:#181818;stroke-width:1.0;stroke-dasharray:7.0,7.0;"/><polygon fill="#181818" points="3385.22,333.5,3376.22,329.5,3380.22,333.5,3376.22,337.5,3385.22,333.5" style="stroke:#181818;stroke-width:1.0;"/><text fill="#000000" font-family="sans-serif" font-size="13" lengthAdjust="spacing" textLength="45" x="3322" y="326.5669">include</text></g><!--MD5=[390c7d82b8279b7569a48ddbb470c9e5]
link tlft to comp--><g id="link_tlft_comp"><path d="M1908.15,305.69 C1977.73,276.55 2096.68,237.92 2198.5,260.5 C2236.15,268.85 2275.47,287.23 2305.28,303.47 " fill="none" id="tlft-to-comp" style="stroke:#181818;stroke-width:1.0;stroke-dasharray:7.0,7.0;"/><polygon fill="#181818" points="2309.98,306.05,2304.0158,298.2124,2305.5971,303.6437,2300.1658,305.225,2309.98,306.05" style="stroke:#181818;stroke-width:1.0;"/><text fill="#000000" font-family="sans-serif" font-size="13" lengthAdjust="spacing" textLength="45" x="2152.5" y="261.5669">include</text></g><!--MD5=[6fb5cfe535c26bbc99407eeee0970cc2]
link aord to com--><g id="link_aord_com"><path d="M2193.3,180.5 C2219.07,180.5 2245.45,180.5 2269.31,180.5 " fill="none" id="aord-to-com" style="stroke:#181818;stroke-width:1.0;stroke-dasharray:7.0,7.0;"/><polygon fill="#181818" points="2274.36,180.5,2265.36,176.5,2269.36,180.5,2265.36,184.5,2274.36,180.5" style="stroke:#181818;stroke-width:1.0;"/><text fill="#000000" font-family="sans-serif" font-size="13" lengthAdjust="spacing" textLength="45" x="2211.25" y="173.5669">include</text></g><!--MD5=[5736b3aaf3ea3353ef68288686ce30c5]
link gCorreo to correo--><g id="link_gCorreo_correo"><path d="M75,371.83 C75,403.62 75,447.66 75,470.47 " fill="none" id="gCorreo-correo" style="stroke:#181818;stroke-width:1.0;"/></g><!--MD5=[c2664787abcbfd36e055b8d9ac04cd5f]
link cto to alta--><g id="link_cto_alta"><path d="M1657.52,371.83 C1673.55,401 1695.26,440.48 1708.41,464.41 " fill="none" id="cto-alta" style="stroke:#181818;stroke-width:1.0;"/></g><!--MD5=[8f181efa0a64f274abb585c65fd47c0c]
link cato to consato--><g id="link_cato_consato"><path d="M1587.73,515.11 C1593.4,518.5 1599.26,521.74 1605,524.5 C1665.29,553.45 1738.12,576.41 1790.31,590.95 " fill="none" id="cato-consato" style="stroke:#181818;stroke-width:1.0;"/></g><!--MD5=[e995b82f993a7e572a12df272110596d]
link tec to rInforme--><g id="link_tec_rInforme"><path d="M1876.68,198.79 C1886.81,205.06 1898.39,212.16 1909,218.5 C1968.36,253.97 2038.62,294.22 2077.14,316.14 " fill="none" id="tec-rInforme" style="stroke:#181818;stroke-width:1.0;"/></g><!--MD5=[e6485db1d21700204763c11a39fa99c2]
link tec to tlft--><g id="link_tec_tlft"><path d="M1849,218.83 C1849,244.68 1849,278.63 1849,302.68 " fill="none" id="tec-tlft" style="stroke:#181818;stroke-width:1.0;"/></g><!--MD5=[62f6c1b415a011539d6f9ee3ffba9726]
link op to otlf--><g id="link_op_otlf"><path d="M2857.64,196.39 C2912.53,221.43 3024.14,272.35 3094.21,304.31 " fill="none" id="op-otlf" style="stroke:#181818;stroke-width:1.0;"/></g><!--MD5=[1463c92b694117f8a76741e822e27d48]
link op to dup--><g id="link_op_dup"><path d="M2832.17,218.83 C2837.47,246.42 2844.54,283.26 2849.18,307.41 " fill="none" id="op-dup" style="stroke:#181818;stroke-width:1.0;"/></g><!--MD5=[933d43c4342fd73e065df9ee0a133a7d]
link op to ord--><g id="link_op_ord"><path d="M2792.19,204.76 C2749.71,234.88 2676.56,286.73 2637.82,314.2 " fill="none" id="op-ord" style="stroke:#181818;stroke-width:1.0;"/></g><!--MD5=[b35659f4cb7b8b35b74c62f495300ff4]
link admin to aord--><g id="link_admin_aord"><path d="M2060,81.75 C2060,103.76 2060,131.17 2060,151.37 " fill="none" id="admin-aord" style="stroke:#181818;stroke-width:1.0;"/></g><!--MD5=[da631cb52ce76547983ce4ab13fdf978]
link admin to calc--><g id="link_admin_calc"><path d="M2107.76,56.24 C2200.11,78.95 2404.37,129.18 2521.64,158.02 " fill="none" id="admin-calc" style="stroke:#181818;stroke-width:1.0;"/></g><!--MD5=[e9356aedf3676b0f53fe8a997f39dd07]
link invi to cons--><g id="link_invi_cons"><path d="M756.86,334.71 C872.7,336.24 1327.92,348.6 1419,448.5 C1483.7,519.47 1480.92,645.7 1477.06,694.48 " fill="none" id="invi-cons" style="stroke:#181818;stroke-width:1.0;"/></g><!--MD5=[d15ac26829bf64dbd515c29d067a05db]
link invi to posible--><g id="link_invi_posible"><path d="M756.79,364.69 C781.85,392.92 818.8,434.56 842.12,460.85 " fill="none" id="invi-posible" style="stroke:#181818;stroke-width:1.0;"/></g><!--MD5=[d1bb8edf00ea6281f63bee0b0d8d8ed4]
link invi to login--><g id="link_invi_login"><path d="M703.28,344.18 C638.84,367.51 473.3,427.46 379.83,461.3 " fill="none" id="invi-login" style="stroke:#181818;stroke-width:1.0;"/></g><!--MD5=[3e12234eeb00d4abe1ed6fc8c8187957]
link invi to lista--><g id="link_invi_lista"><path d="M703.21,364.69 C677.85,393.27 640.3,435.58 617.03,461.8 " fill="none" id="invi-lista" style="stroke:#181818;stroke-width:1.0;"/></g><!--MD5=[3bc5f382ce96cd2db4bda2c3f5d4b2ee]
@startuml

:Gestor correo: as gCorreo
:Tecnico: as tec
:Operador: as op
:Administrador: as admin
:Invitado: as invi
:ComunATO: as cato
:ComunTO: as cto
(Consultar incidencias ATO) as consato
(Editar incidencia) as edit
(Enviar correo) as correo
(Dar de alta incidencia) as alta
(Consultar incidencias) as cons
(Realizar informes) as rInforme
(Comprobar datos sobre incidencia) as comp
(Dar de alta localizacion) as alta
(Introducir explicacion) as explicacion
(Subir foto) as foto
(Informar de posible incidencia) as posible
(Atender llamadas telefonicas tecnico) as tlft
(Atender llamadas telefonicas) as tlf
(Atender llamadas telefonicas operador) as otlf
(Introducir nuevos datos incidencia) as new
(Registrarse para ver notificaciones) as login
(Ver listado de notificaciones) as lista
(Ordenar incidencias) as ord
(Marcar incidencias duplicadas) as dup
(Ordenar incidencias administrador) as aord
(Añadir comentario) as com
(Gestionar categoria de incidencias) as calc

tec - -|> cto
op - -|> cto
cto - -|> cato
admin - -|> cato
consato - -|> cons
tlft - -|> tlf
otlf - -|> tlf
aord - -|> ord

correo .> alta : extends
edit .> consato : extends

posible .> alta : include
posible .> explicacion : include
posible .> foto : include
otlf .> new : include
tlft .> comp : include
aord .> com : include

gCorreo - - correo
cto - - alta
cato - - consato
tec - - rInforme
tec - - tlft
op - - otlf
op - - dup
op - - ord
admin - - aord
admin - - calc
invi - - cons
invi - - posible
invi - - login
invi - - lista

@enduml

PlantUML version 1.2022.7(Mon Aug 22 19:01:30 CEST 2022)
(GPL source distribution)
Java Runtime: OpenJDK Runtime Environment
JVM: OpenJDK 64-Bit Server VM
Default Encoding: UTF-8
Language: es
Country: ES
--></g></svg>